<?xml version="1.0" encoding="UTF-8" standalone="no"?>
<!DOCTYPE svg PUBLIC "-//W3C//DTD SVG 1.1//EN" "http://www.w3.org/Graphics/SVG/1.1/DTD/svg11.dtd">
<svg width="100%" height="100%" viewBox="0 0 540 118" version="1.1" xmlns="http://www.w3.org/2000/svg" xmlns:xlink="http://www.w3.org/1999/xlink" xml:space="preserve" xmlns:serif="http://www.serif.com/" style="fill-rule:evenodd;clip-rule:evenodd;stroke-linejoin:round;stroke-miterlimit:2;">
    <g transform="matrix(1,0,0,1,-640,-625.224)">
        <g transform="matrix(1,0,0,1,0,-0.00389463)">
            <g transform="matrix(1,0,0,1,366.136,317.852)">
                <path d="M578.233,422.059L552.74,422.059C552.74,422.059 533.021,360.737 524.536,334.35C524.004,332.696 522.466,331.574 520.728,331.574C518.991,331.574 517.452,332.696 516.92,334.35C508.435,360.737 488.716,422.059 488.716,422.059L463.223,422.059C463.223,422.059 478.833,373.516 493.787,327.012C497.55,315.311 508.436,307.376 520.728,307.376C533.02,307.376 543.907,315.311 547.67,327.012C562.623,373.516 578.233,422.059 578.233,422.059Z" style="fill:rgb(181,3,3);"/>
            </g>
            <g transform="matrix(1,0,0,1,-349.366,317.908)">
                <path d="M1067.98,399.532C1068.44,401.291 1070.03,402.518 1071.85,402.518C1073.67,402.518 1075.26,401.291 1075.72,399.532C1082.04,375.44 1093.86,330.325 1093.86,330.325C1097.78,315.372 1112.2,305.654 1127.53,307.63C1142.86,309.606 1154.34,322.661 1154.34,338.119L1154.34,422.004L1128.85,422.004L1128.85,335.892C1128.85,333.184 1126.84,330.898 1124.15,330.551C1121.46,330.205 1118.94,331.908 1118.25,334.527L1101.8,397.316C1101.8,397.316 1101.26,399.348 1100.34,402.871C1096.95,415.808 1085.25,424.827 1071.88,424.817C1058.5,424.807 1046.82,415.771 1043.45,402.829C1042.54,399.332 1042.01,397.316 1042.01,397.316L1025.45,334.527C1024.77,331.908 1022.24,330.205 1019.56,330.551C1016.87,330.898 1014.86,333.184 1014.86,335.892L1014.86,422.004L989.366,422.004L989.366,338.119C989.366,322.661 1000.85,309.606 1016.18,307.63C1031.51,305.654 1045.92,315.372 1049.84,330.325C1049.84,330.325 1061.67,375.44 1067.98,399.532Z" style="fill:rgb(181,3,3);"/>
            </g>
            <g transform="matrix(1,0,0,1,134.883,317.805)">
                <path d="M887.44,310.124C906.274,310.167 921.486,325.406 921.486,344.17C921.486,356.238 915.193,366.848 905.713,372.895L905.713,372.895L921.538,422.107L896.045,422.107L881.931,378.215L859.365,378.215L859.365,422.107L833.872,422.107L833.872,354.016L833.872,353.968L887.44,353.968C892.848,353.968 897.239,349.578 897.239,344.17C897.239,338.762 892.849,334.372 887.44,334.372L833.872,334.372L833.872,310.124L887.44,310.124Z" style="fill:rgb(181,3,3);"/>
            </g>
            <g transform="matrix(1,0,0,1,258.115,317.805)">
                <path d="M856.737,378.215C837.947,378.215 822.692,362.96 822.692,344.17C822.692,325.406 837.904,310.167 856.737,310.124L916.897,310.124L916.897,334.372L856.737,334.372C851.329,334.372 846.939,338.762 846.939,344.17C846.939,349.578 851.329,353.968 856.737,353.968L887.518,353.968C906.308,353.968 921.563,369.223 921.563,388.014C921.563,406.777 906.351,422.016 887.518,422.059L827.358,422.059L827.358,397.812L887.518,397.812C892.926,397.812 897.316,393.421 897.316,388.014C897.316,382.606 892.926,378.216 887.518,378.215L872.127,378.215L856.737,378.215Z" style="fill:rgb(181,3,3);"/>
            </g>
        </g>
    </g>
</svg>
