<svg xmlns="http://www.w3.org/2000/svg" viewBox="0 0 166.92 156.49"><defs><style>.cls-1{fill:#186904;stroke:#282828;stroke-miterlimit:10;stroke-width:1.42px;}.cls-2{fill:#fff;}</style></defs><title>p_curiocity</title><g id="Layer_1" data-name="Layer 1"><circle class="cls-1" cx="83.46" cy="78.25" r="77.54"/><path class="cls-2" d="M728.33,936.22a75.35,75.35,0,0,0-19.6-6.83c-7.09-1.28-13.47-6-21.2-4.33-1.59.35-3.17.59-4.06,1.82-.29.41.91,1.87,1.41,2.85,2.67,5.36,7.78,8.51,11.56,12.83,5.34,6.1,4.67,13.11-1.51,18.24-3.7,3.07-7.5,6.29-12.37,7.36-6.35,1.39-10.87-3.51-12.7-8-3.47-8.55-2.13-12,5.59-17.11,1.6-1,3.32-1.94,4.83-3.09,1.25-1,4.33-1.73,3.65-2.5-2.2-2.51-2.16-7.61-7.55-6.92-3,.4-4.42-2-4.7-4.68a2.28,2.28,0,0,0-1.65-2.23c-4.66-2-8.93-5-14.23-5.28-.55,0-1.12.05-1.68.07l.75,1.14c-.51-.08-1-.18-1.53-.22-.84-.07-1.68.07-.61,1,.44.37,1.4.14,2.12.19v-1a5.82,5.82,0,0,1,3.71,5.4,22.92,22.92,0,0,0,2.17,7.82c3.8,9,1.69,13.15-8.77,18.9-11.16,6.13-20.86.33-20.55-12.6.13-5.61,5.06-7.92,9.26-10.1,3.29-1.7,2.13-3.65,1.09-5.69-.8-1.57-1.23-2.87.38-4.08A2.37,2.37,0,0,0,643,917c0-3.18,2-4,4.51-3.3a4,4,0,0,0,3.81-.52c3.59-2.44,6.37-2.35,10.14.78s9.12,4.69,13.84,6.76a2.38,2.38,0,0,0,2.19-.91c.29-.88-.94-.76-1.47-.86-4-.77-3.2-4.46-2.88-6.43,1.22-7.6-2-12.86-7.54-17.31-1.78-1.44-2-2.91-.7-4.91,2.09-3.11,3.46-6.67,6.38-9.27,1.42-1.26,2.44-1.82,3.75-.07,3.52,4.7,6.3.7,8.5-1.28,1.42-1.28,3.47-3.4,2.43-6.2-.09-.24.5-.9.91-1.1a1.32,1.32,0,0,1,1.17.31c1.33,1.3,2.56,2.69,3.89,4,.85.83,1.81,1.55,2.72,2.31-.46-1.9,2.54-2.17,1.9-4.45-.55-1.94,0-4.16-.32-6.21-.45-3,1.18-3.73,3.55-3.78,2.6-.06,4.12,1,3.57,3.92a8.3,8.3,0,0,0,0,.87c-.08.68-.17,1.36-.26,2a11.5,11.5,0,0,0-.32-1.95c-.27-.77.1-2.66-1.37-1.81s-4.91-2.31-4.21,2.08c.36,2.28-1.9,6.83,3.29,5.75,6.08-1.27,8.12,2.47,10.2,6.66.49,1,1,1,2.14,1.2,3.57.56,9.72,1.15,10.06,2.75,1,4.92,4.14,3.16,6.72,3.77,1.34.32,2.15.66,2.45-1.07a2.41,2.41,0,0,1,2.24-1.89A2.66,2.66,0,0,1,737,888c1.31,1.65,2.62,3.31,4,4.91,1.91,2.21,3.49.22,5.14.56-.08-1.81.31-3.81-.33-5.39-1.32-3.23-4.39-5.18-6.69-7.71-.71-.78-2.33-1.46-1.47-2.55,1.87-2.37-.57-6.92,4-7.78,3.13-.58,6.26-1.19,9.41-1.71,3.49-.57,10.26,5.13,10.31,8.63,0,4.47-2.48,6.91-7.33,7.06-.21,0-.62.27-.6.34,1,4-2.12,7.62-1,11.67.29,1.11.38,1.85,1.64,2.2s1.69-.52,2-1.34c.78-2.21,2.09-2.73,4.29-1.91,1.6.6,3.38.74,5,1.21,1.09.3,2.17,1.29,1.18,2.22-2.28,2.16-2.45,5-2.31,7.58.16,2.92,3.54,2.94,5.6,3.79,3.32,1.36,6.4.16,9.08-2.21a3.66,3.66,0,0,0,1.65-2.63c.17-2.31,1.66-3.22,3.83-2.93a2.62,2.62,0,0,1,2.51,3.27c-.4,2,2.6,2.41,2,3.64-2.35,4.74,2.09,4.85,4.14,6.51,7.62,6.18,6.91,16.39-1.57,21.34-3.1,1.81-5.67,4.52-9.49,5.06-7.64,1.08-13.36-6.92-13.34-12.9a10.28,10.28,0,0,1,3.79-8.51,4.4,4.4,0,0,0,1.15-2.41,3.06,3.06,0,0,0-1.81-.9c-3.27,0-4.15-3.81-7-4.38a6.67,6.67,0,0,0-1.35-.13c-.26,1.36-.44,2.73-.63,4.1a3.77,3.77,0,0,0,1.43.13c2.38-.8,3.9,0,4.36,2.43.4,2.1,1.19,4.52-2.11,5.19-.91.19-.59.87-.48,1.4q1.57,7.75,3.19,15.5a5,5,0,0,0,.48,1c.26-.29.52-.56.76-.86a1.89,1.89,0,0,1,2.89-.39,5.63,5.63,0,0,0,3.86,1.52c1.22-.07,2.68,1.29,2.24,2.16-1.93,3.8,1.81,6.09,2.12,9.24.14,1.51-.14,2.69-1.36,3.49s-2.42,1.42-3.81.28a1.83,1.83,0,0,0-1.06-.26c-2.54,6-6.08.13-9.08.74-2.07.41-2.86-1.18-3.29-3a3.18,3.18,0,0,0-.92-1.44c-5.59-5.13-5.44-6.14,1.69-10.1.74-.42.59-.92.48-1.46q-1.57-7.85-3.19-15.68c-.33-1.63-1.53-.83-2.38-.73-2.17.25-4.62,1.72-5.86-1.55-.06-.14-.36-.19-.55-.29a3.35,3.35,0,0,0-.45,1c-.06,1.39-.05,2.79-.06,4.18,0,2.19-.79,3.91-3.11,4.4s-4.63.47-6.07-2c-.17-.29-.82-.65-1-.55-1.17.73-2.27,1.56-3.39,2.37.5.3,1,.65,1.51.9.94.44,2,.7,2.08,2,.12,1.56.22,3.11-1.42,4-3.92,2-4.17,3.25-2.43,8.35,2.35,6.9,9.16,13.92,4.44,22.36-2.21,4-6.32,6.09-9.82,8.75-4,3-8.47,5.14-13.18,2.24-5.77-3.55-9-9-8.21-16,.64-5.54,5.5-8.07,9.69-10.67,3-1.84,3.38-3.68,1.5-6.44-.66-1-.81-2.82,0-3.23,2.91-1.42.57-7.34,5.8-6.56,1.44.22,3.4,1.31,4-1s.87-4.28-2.31-5.64c-5.48-2.33-10.62-5.46-15.93-8.19-.77-.39-2.07-1.61-2.44-.53s-.73,2.85,1.2,3.84c5.29,2.71,10.48,5.64,15.7,8.49ZM738.39,924c.4-.81.81-1.62,1.2-2.44a2.35,2.35,0,0,0,.1-.6,4.26,4.26,0,0,0-1.28,3c-.11.52-.23,1,0,.12C738.34,925.08,738.37,924.54,738.39,924ZM673,961.63l-.7-1.27-.14.08.84,1.2c.93,1,1.86,2.09,2.81,3.12a1.33,1.33,0,0,0,.21-.13c-.83-.86-1.65-1.73-2.48-2.58A5.56,5.56,0,0,0,673,961.63Zm45.89,17.84,1.33.67-1.2-.82c-1.18-1.33-2.36-2.66-3.56-4-.06-.06-.25,0-.39,0A10.64,10.64,0,0,0,718.86,979.47Zm45.29-49.83-.84-4.69h-.13c.3,1.5.61,3,.91,4.51,0,.06.06.11.08.16.47,2.2.93,4.41,1.39,6.61s.69,4.27,1,6.4l.48-.1-1.53-6.28C765.08,934.05,764.62,931.85,764.15,929.64Zm-73.43-22.31c0,.42-.07.95.14,1.26.69,1,1.54,1.13,1.65-.27.09-1.09-1.12-.79-1.81-1l-2.65-.68c0,.44-.26,1.07,0,1.28,1.07,1.12,1.4-.61,2.21-.66A2.92,2.92,0,0,1,690.72,907.33Zm49.1,60.95c-.42.71-.82,2.12-1.63,1.65-3.75-2.15-2.13,1.49-2.89,2.52a22,22,0,0,0-2.82.08c-.89.13-1.17.88-1.06,1.69.05.36.36,1,.54,1a3.23,3.23,0,0,0,3.31-2.77c.59-.56,1.46-1.72,1.72-1.6,3.25,1.57,2-1.59,2.81-2.57.76-.1,1.69,0,2.24-.38s.56-1.28.75-2c0-.07-.4-.4-.6-.38C740.52,965.67,740.16,967,739.82,968.28Zm-34.83-55c-.38-.56.2-1.77-1.09-1.69-.23,0-.62.39-.61.6,0,1.2,1.14.7,1.72,1.07.62,1-1.29,3.17,1.14,3.24,2.12.06,1.19-2,1.12-2.93C707.05,910.57,705.59,914.94,705,913.26Zm-18.08-8a7.18,7.18,0,0,1-1.1-1c-.33-.46-.5-1.1-1.26-.67a5,5,0,0,0-.74.64,9.28,9.28,0,0,0,1.3.65,15.91,15.91,0,0,0,1.82.39c2.73.9,5.46,1.81,8.2,2.67.53.16,1.3.67,1.57-.33s-.74-1-1.29-1.13C692.59,906,689.75,905.62,686.91,905.23Zm100.92,13.61c.69.18,1.49.67,2,.48.82-.28.16-1,.06-1.62-.22-1.18.68-.9,1.35-.88h1.51c-.07-.26-.06-.66-.22-.74a5.73,5.73,0,0,0-1.69-.62c-2.68-.41-1.53,2.72-3.08,3.39a2.6,2.6,0,0,0-2.76-.36c-.13,0-.23.68-.1.89,1.07,1.76-.32,1.41-1.25,1.56a11,11,0,0,0-1.75.53,4.71,4.71,0,0,0,.54.93c.53.56,1.16.43,1.91.47C787.54,923,785.48,919.09,787.83,918.84Zm-102.67.66c.19,1,.89,1.08,1.69,1a1.82,1.82,0,0,0,.3-.11l-2-.86c-.13-2.84-.4-5.67-.33-8.5,0-1.32-1.11-3.4,1.52-3.77-.06-.44.86-.9,0-1.28-.4-.2-.71-.33-1.37.2-2.55,2.09-1.63,4.86-1.28,7.12C684,915.33,682.29,918.05,685.16,919.5Zm68.91-14.26c-1.37,0-3.12,1-3.56-1.43,0-.17-.92-.24-1.41-.22-.17,0-.51.49-.46.63.65,1.73-.63,2.38-1.67,3.21-.22.18-1.1.25-.48.76,1,.82.8,1.32-.25,1.69s-2.32.43-2.76-.87c-.2-.61-.31-.79-.9-.88-2.09-.34-5-.39-4.71-3.19s3.27-2.78,5.32-2.67c3,.16.74-2.32,1.88-3.16.38-.29-1.36-.88-1.76-.68-2.75,1.32-5.54-.42-8.29.26-2.4.6-3.23-.77-3.24-3,0-.87.33-1.9-.9-2.36a2.67,2.67,0,0,0-3,.5,65.88,65.88,0,0,1-21.06,12.88,10.26,10.26,0,0,0-2.09,1.44c1.08.91,1.22-.53,1.85-.72a1,1,0,0,1,.9.26c1.5,3,3.81,3.12,6.59,2,.61-.24,1.26.14.94.93s.38.85.77,1c1.7.47,3.43.88,5.14,1.3a2.94,2.94,0,0,0,0-.81c-2.83-.74-2.72-3.64-4-5.48a1.74,1.74,0,0,1-.38-1.16,1.08,1.08,0,0,1,1-.45,2.27,2.27,0,0,1,.9,1.07,19.41,19.41,0,0,0,1.54,3.64c.49.67,1.88,1.4,2.46,1.15,1.4-.6.78-2.28,1.08-3.48s-.06-3,2.05-2.61c1.52.29,4.07-1.27,4.37,1.28a18.34,18.34,0,0,1-.86,8c-.74,2.1.82,1.94,1.45,2,.89,0,1.48-2.54,2.63.48.74,1.93,3.69.31,5.08-1.2.21-.24-2.08-1.12-2.58-2.58-.22-.61-1.71-.73-1.17-2s.58-2.72,2.41-2.69c1.34,0,2.28.43,2.58,2,.25,1.26.91,1.83,2.57,1.61,4.89-.67,8.31-3.83,12.09-6.43,1.25-.72,2.51-1.41,3.72-2.19a18,18,0,0,0,1.78-1.49c-1.42-.46-2.83-1-4.27-1.35-1-.24-.52.93-.85,1.12C752.36,902.49,754.55,904,754.07,905.24Zm-69.68-21.8a5.4,5.4,0,0,0-3.81,2.34c-.74,1.08.66,1.7,1.27,2.33,2.88,3,5.75,6.06,8.83,8.88,2,1.84,3.29-.71,4.67-1.48,1.2-.66-.37-1.41-.83-1.9-3-3.16-6.06-6.24-9.11-9.34A12.17,12.17,0,0,0,684.39,883.44Zm-8.84,28.25c-.81,6.06,4.06,4.6,6.6,5.71,1.3.58.81-1.39.83-2.14.13-7-1.81-10.22-6.82-9.43C673.64,906.22,676.14,910.09,675.55,911.69Zm19.23,4.2c-.86,6.51,3.37,4.25,5.45,4.05,1.43-.13,3.73-1,4.08-3.35.43-2.78-1.6-3.08-3.55-3.63-4.23-1.2-8.43-2.53-12.65-3.77a8.35,8.35,0,0,0-1.74-.11c0,1,1,.76,1.51,1C690.78,911.73,697.06,909.93,694.78,915.89Zm-20.63-33.18c1.31,0,1.47.88,1.62,2,.21,1.58-.7,4.37.89,4.56,5.81.69,7.52,5.07,9.57,9.31a1.48,1.48,0,0,0,1.94.7,6.7,6.7,0,0,0,2-1.2,3.09,3.09,0,0,0-.61-1.09c-4.46-4.63-9.18-9-13.33-13.93-2.73-3.23-4.34-2.17-6.28.42-.4.53-.68.93-.1,1.48s1.41,1.34,2.12,2a9.92,9.92,0,0,0,.34-1.92C672.29,883.71,672.52,882.68,674.15,882.71ZM716,919.47c.92,1.66-1,4.22,1.07,5.65a58.24,58.24,0,0,0,6.9,3.67c.58.3,1,.48,1.11-.54.42-6.19-1.61-8.88-7.7-10.24C716.14,917.73,716,918.31,716,919.47Zm31.14-44,10.29-2c.4-.08,1-.41.54-.71-2.26-1.37-3.64-4.42-7-3.75-2.66.54-5.34,1-8,1.54-.41.08-1.5.17-1,.7A63.91,63.91,0,0,0,747.17,875.43Zm13.47,1.3c0-.83.24-2.59-1-2.54a33.67,33.67,0,0,0-8.51,1.41c-.9.27,1,1,.87,1.87a9.81,9.81,0,0,1-.22,2c-.53,1.7,1.92.58,1.72,1.89.19-.25.35-.52.56-.76a2.66,2.66,0,0,1,3.15-.8C762,883.13,760.56,879.18,760.64,876.73Zm-86.11,44.76c-1.13-.67-1.38-.85-1.66-1-4-1.91-8.07-3.82-12.09-5.74-.87-.41-1.63-.62-2.13.52s-.49,1.93.81,2.53c3.51,1.64,7,3.42,10.49,5C671.77,923.7,672,921,674.53,921.49Zm-1.89-22.37a2.57,2.57,0,0,0-1.09-2.42c-3.06-2.44-4.88-4.84.25-7,.28-.12.61-.91.51-1-1-1.17-2.14-2.26-3.27-3.32a4.41,4.41,0,0,0-.91.8c-3.46,4.18-4,8.06,1.13,11.43a15.16,15.16,0,0,1,2.07,2.09,9.07,9.07,0,0,0,1.07.77Zm61.88,27.43a29.5,29.5,0,0,1,0,3.12c-.27,2.82.29,4.42,3.07,1.89.86-.78,5.59-1.48.69-3.62-.35-.16-.54-.72-.77-1.12-1.66-2.84.84-4.82,1.49-7.18a5.93,5.93,0,0,0,.13-1.46s-.43-.23-.54-.16c-2.18,1.4-5.58,1.94-4.09,5.93A8.05,8.05,0,0,1,734.52,926.55Zm-47-5.62c-.93.75-2.59-.66-2.88,1.13-.13.75-.31,2.28,1.17,2.3,4.17.07,8.35.11,12.52-.06,1.73-.07.35-1.94,1.16-2.88.46-.53-.9-.45-1.4-.46C694.6,920.91,691.07,920.93,687.56,920.93Zm17.23-32.71c.91-.16,2.15-.14,1.5-1.47-1.74-3.52-2.79-7.82-8-8-.87,0-2.34-.51-2.5-.21-.66,1.19.83,1.51,1.36,2.24a24.6,24.6,0,0,1,2.62,3.56A6.78,6.78,0,0,0,704.79,888.22Zm28.69,5.87c.89,1.1-1.24,3.4,1.15,3.82s4.33-1.19,6.33-2.29c-1.61-2.3-2.31-6-5.19-6.42C732.61,888.76,734,892.14,733.48,894.09Zm-38.85,9.19c2.44.57,5.71-.21,5.7-2.23,0-2.27-3.25-2.42-5.6-2h-.17c-2.32-.26-5.51.24-5.52,2.2S692.2,903.8,694.63,903.28Zm74.18,46.56c2.61-.52,4.65-.91,6.67-1.36.38-.08.69-.44,1-.67-.4-.23-.82-.45-1.21-.69-1.65-1-3.56-1.43-4.95-3.11s-3.25.19-4.93.12c-.43,0-.88.38-1.31.59ZM691.42,880.2a12.56,12.56,0,0,0-.89,1.07c-.35.54-.67,1.1-.07,1.71,3,3.09,6.06,6.19,9.11,9.27.92.92,1.79.15,2.45-.39.82-.66-.1-1.12-.47-1.5-2.76-2.87-5.56-5.7-8.36-8.54C692.66,881.29,692.09,880.81,691.42,880.2ZM780.75,941a28.47,28.47,0,0,0,3.23-1.48c.53-.31.81-1,1.21-1.59a7.36,7.36,0,0,0-.83-.54c-1.49-.73-3-1.53-4.51-2.14-2.47-1-3.43,1.53-5.1,2.39-.73.38-.09.91.29,1.21A11.11,11.11,0,0,0,780.75,941Zm-21.58-30.78c-.32-2.08-.47-3.13-.63-4.19a17.67,17.67,0,0,0-2.81,1.64c-1,.86-3.55,1.2-2.83,2.55a12.66,12.66,0,0,1,1.68,6.22c0,.35.44.72.74,1,.09.09.4,0,.6-.06C754.89,914,760.24,912.82,759.17,910.25Zm2.44,12.1c-.61-1.27.18-3.83-2.3-3.93-1.36,0-4.42.19-4.06,1.26.67,2-.72,5.05,1.74,5.72C758.38,925.78,761.63,926.06,761.61,922.35Zm12.66,1.11c.24,1.24-.38,3.16,1.64,3.23s1-1.83,1.14-2.82a16,16,0,0,1,3.41-8.56c.33-.39.86-.86.22-1.29a1.61,1.61,0,0,0-1.34,0C775.35,915.92,774.69,919.59,774.27,923.46Zm-56.58-34.52c1-.58,2.22-1.2,3.36-1.86s1.11-.91.51-1c-3.94-.69-7.82-4-11.9-.4-.31.27-1.31.57-.19.93C712.12,887.45,714.81,888.13,717.69,888.94Zm50.08,31.56c-.24-.82.4-3.16-1.91-3.21-1.41,0-4.22-.26-4.22,1.28,0,2.48.47,5.72,4.49,5.35C767.9,923.76,768,922.55,767.77,920.5Zm-81.72,28.75c-.81-.11-1.8-.33-2.17.53-.18.42.3,1.22.64,1.74,1,1.55,2-.27,3.08-.1s1.08-1.13,1.29-1.88c.4-1.43.38-3,2.65-1.46,1.49,1,2-.52,1.82-1.59-.38-1.82.43-1.7,1.65-1.4.72.17,1.76.43,1.71-.64,0-.65-1.16-1.84-1.52-1.75-1.4.36-3.56,0-3.34,2.64.12,1.46-.6,1.81-1.93.92a3.11,3.11,0,0,0-2.1-.16c-.21,0-.44,1.12-.26,1.57C688.32,949.51,687.15,949.3,686.05,949.25Zm45.71,13.93c0,1.33-1.34.43-2.1.45s-1.54-.13-1.78.62c-.14.45.29,1.12.55,1.64,1,2,2.13-.26,3.29.06.93.25.67-1.14,1.09-1.64.65-.75-.68-3.47,2-2.19.64.31,1.31.85,1.83.35a2.14,2.14,0,0,0,.5-1.87c-.63-1.88.43-1.58,1.56-1.45a6.31,6.31,0,0,0,1.55-.18c-.06-.43,0-1-.22-1.26-.35-.46-1-1.16-1.36-1.07-1.4.37-3.16.48-3,2.75.08.87,0,2.08-1.56,1.29C731.93,959.53,731.19,960.31,731.76,963.18Zm41.68-37.26c-.31-1-.62-2.11-.94-3.19a4.45,4.45,0,0,0-2.13,2.81,10.83,10.83,0,0,0-.1,6.33c.82,3.33,2.16,5,5.31,2,.44-.42,1.25-1.12,1.16-1.29-.51-.94-1.16-.16-1.75.06-1,.36-1.82-.71-1.56-1C775.49,929.68,772.23,927.86,773.44,925.92ZM648.15,936.21c-.65.21-1.92-.44-2.16.83-.1.53,1,1.82,1,1.78,1.34-.62,3.47.36,4-1.91.37-1.56.48-3.42,3-1.64,1.2.86,1.92-.55,1.71-1.48-.46-2,.47-1.84,1.82-1.47.64.18,1.65.37,1.59-.63,0-.63-1.1-1.8-1.33-1.71-1.35.49-3.58-.17-3.57,2.46,0,1.29-.64,1.58-2,.92-1.07-.54-2.87-.85-2.37,1.34C650.34,936.56,649.49,936.39,648.15,936.21ZM750.68,928c-1.44-2-4.41.49-6.63-.52-1.29-.58-1.11,1.59-1.08,2.43.09,2.55,2.4,2.21,3.92,2.26C748.77,932.21,751.07,932.12,750.68,928ZM690,951.7c.41,2.62-1,1.74-2,1.6s-1.85-.06-1.9.9a3.91,3.91,0,0,0,1,2.1c1.29-.44,3,0,3.62-2,.32-1.06.27-4.13,2.91-1.51.62.62,1.16-.25,1.29-.88.31-1.56.22-3.5,2.82-2.35.08,0,.83-.87.77-1.27-.09-.64-.17-1.85-1.1-1.61s-2.31-.24-2.75,1.48c-.23.94.37,3.24-2,2.48-.58-.19-1.13-1.13-1.75-.63A4.18,4.18,0,0,0,690,951.7Zm-6.33-56.39-4.07,2.85c1.24,1.73,1.3,4.49,3.44,5.21.85.29,3.41-1,3.2-2.68C686,898.86,684.64,897.18,683.69,895.31Zm50.35,71c.3,1.39.08,1.93-1,1.73s-2.36-.86-2.73.71c-.16.66.55,1.53.86,2.31,1.06-.7,2.65,0,3.45-1.74.48-1-.19-5,3.19-2.13a1.75,1.75,0,0,0,.9-.73c.5-1.49.3-3.63,3-2.85.08,0,.66-.88.55-1.2-.2-.61-.09-1.86-1.1-1.61s-2.31,0-2.56,1.7c-.14,1,.35,3-1.85,2.6-.61-.13-1.19-1.3-1.86-.72S734.2,965.89,734,966.31Zm-81.88-27.59c.29,1.23.09,1.81-.91,1.67s-2.39-.92-2.94.63c-.18.51.51,1.32.8,2,1.21-.58,2.92.25,3.7-1.69.46-1.13.46-4.17,3.35-1.79.22.18,3.12-2.87,4.7-4.5.08-.08-.55-.84-.84-1.29-1,.69-2.69,0-3.14,1.87-.17.74.26,3-1.84,2-.71-.34-1.44-1.13-2.09-.67S652.32,938.3,652.16,938.72Zm33.4-1.32,3.05-.43a3.51,3.51,0,0,0-.35-.92c-1.72-2.4-3.45-4.81-5.23-7.17-.25-.33-.74-1.39-1.21-.42s-1.05,2.65-.59,3.38C682.52,933.85,683.56,936.21,685.56,937.4Zm40.8-10c-.4-2.25-.15-2.87.6-3.16a2,2,0,0,1,2.28.83c1.43,1.72,1.09,3.94,1.57,5.93a5.67,5.67,0,0,0,.39.83,4.52,4.52,0,0,0,0-.82c-.38-2.74-1-5.48-1.1-8.23-.14-3.54-3-3.32-5-3.39-1,0-.06,2.29,0,3.54a18,18,0,0,0,.39,2.92c.23,1.2.54,2.38.82,3.57Zm9.89,28.18,1.07-.54a6.49,6.49,0,0,0-.74-1.06c-1.35-1.32-2.4.45-3.67.42-.86,0-.66,1-.65,1.54,0,1.34-.38,1.71-1.78,1.36-1-.24-3.13-.84-2.51,1.11.73,2.34-.52,1.85-1.68,1.9-.85,0-1.79.15-2,1-.08.35.92,1.37,1.32,1.32,1.68-.23,3.88,0,4.1-2.52.13-1.6.14-2.89,2.35-1.76.62.32,2.43.74,1.95-1C733.35,954.92,734.54,955.17,736.25,955.59Zm-27.44-68.44c-1.63-.23-1.75,1-2.13,1.78-.46,1,.54,1,1.05,1.14,2.32.7,4.68,1.29,7,2,1.65.51,1.55-1,2.08-1.71s.07-.93-.54-1.11Zm-15,29.37c0-2.84-1.36-4.12-4.32-4.26-1.32-.06-.91,1-1,1.57-.47,3.4,1.46,4.88,4.47,5C694.66,918.84,693.31,917.14,693.79,916.52ZM690.61,942l3.14-.72c-.07-.25,0-.64-.21-.73-.56-.33-1.2-.83-1.77-.78-2.87.28-3.74,4.67-7.32,3.67,0,0-.34.56-.27.74.87,2-.52,1.79-1.76,1.93a6.17,6.17,0,0,0-1.88.95c.52.5,1.41,1.5,1.5,1.43,1.25-.93,3.67-.22,3.86-2.61.15-1.81.83-2.52,2.66-1.63,1.13.56,2.28.1,1.82-1.16C689.5,940.62,691.33,941.68,690.61,942Zm24.89-40.92,3.42-2.19c-.87-1.29-2.21-1.51-3.61-1.63a8.68,8.68,0,0,1-1.7-.2,4,4,0,0,0-4.53,1.82c-.44.69,1.76,1.38,3,1.67C713,900.75,714,900.83,715.5,901.05Zm-67.28,29.07a8.46,8.46,0,0,0-1.48.79c.91,2.93-1.36,2-2.66,2.32-.44.1-.78.57-1.17.87.49.44,1.24,1.37,1.44,1.26,1.42-.76,3.79-.16,4.06-2.66.15-1.38.49-2.18,2.2-1.32.87.44,2.72.73,2.21-1.25s.7-1.35,1.54-1.46,1.41-.15,2.11-.22c-.08-.2-.11-.45-.26-.57-.67-.6-1.58-.42-2.28-.62C650.84,926.35,651.76,932.33,648.22,930.12ZM749.13,894c1,1.62-1.14,4.74,1.26,4.81,2.87.08,1.38-3.13,1.38-4.76s1.44-4.83-1-4.86C747.65,889.16,750.31,892.49,749.13,894Zm-6.36,23.64c.06.74-.65,1.88.52,2.07.91.15,2.33.09,2.79-.47.61-.77-1-.69-1.26-1.37-.73-1.85-.54-3.29,1.6-4l1.14-.39c-.21-.47-.28-1.13-.64-1.39-1.72-1.28-3.5-.18-5.1.28-1.06.31.25,1.3.33,2C742.27,915.51,742.56,916.58,742.77,917.65Zm.1-14.74c-1.54.46-4.32,0-4,1.84.49,2.52,3.44,1.83,5.47,1.78,1.34,0,3.68-.14,3.3-1.82C747.19,902.47,744.57,903.27,742.87,902.91Zm-14.81,44.91c.7-.34,2.47.43,2.67-2,.36-4.52-3.11-2.37-4.83-2.64-2.14-.33-1,1.91-1.15,2.8C724.46,947.89,726.15,947.78,728.06,947.82ZM786.72,924c-.57.11-1.69-.34-1.62.79,0,.63,1.09,1.81,1.33,1.72,1.1-.37,2.72-.07,2.88-2.06.2-2.5,4.6-1,4.38-4.2,0,0,1.77,1,1.9-.54,0-.46-1-1.47-1.39-1.4-.88.15-2-.06-2.36,1.61-.49,2.23-4.18,1.49-4.69,4.14ZM777,948.82c-2.56.54-5.08.95-7.52,1.65a2.55,2.55,0,0,0-2,3c.44,1.51,1.58,0,2.44.07,3.45.43,4.58-3.72,7.7-4,0,0,.14-.38.11-.4A6.13,6.13,0,0,0,777,948.82Zm-62.95-33.35c.47-1.72-.8-1.57-1.35-1.63-1-.1-.48.77-.49,1.26a18.53,18.53,0,0,0,1.19,6.12c.25.76-.91,2.39.85,2.35,1.4,0,.36-1.69.69-2.54.6-1.52-1.62-4.42,2.16-4.44.19,0,.37-.66.55-1a9.7,9.7,0,0,0-1-.51c-.48-.18-.84-.19-.94.53,0,.29-.73.78-.92.69C714.43,916.13,714.21,915.63,714.08,915.47Zm-54.33,25.31c.94.17,1.66-.08,1.69-1.15a3,3,0,0,0-.37-1.3c-.88.17-1.86-.12-2.43,1.13-.49,1.09-.95,3.77-2.29,2.65-2.12-1.77-2.26-.2-2.6.89-.45,1.41-.91,2.12-2.52,1.49a1.87,1.87,0,0,0-1.61.66c-.26.33-.13,1.11.06,1.61.33.87,1,.13,1.49.14,2,.06,2.07-1.91,3.11-2.87.4-.38.68-1.52,1.36-.84,2.28,2.3,2.06-.58,2.55-1.31S658.75,940.52,659.75,940.78ZM698.53,954c-.25,0,.46-.38.55-1.47a4.61,4.61,0,0,0-.34-1.4c-.88.24-1.73.18-2.4,1.25s-.18,4.69-3.31,2.1c-.1-.09-.83.31-1,.62-.78,1.41-.67,3.86-3.53,2.61-.41-.18-1.3.52-1.16,1.41a10,10,0,0,0,.44,1.38c1-.41,2.19-.21,3-1.32s1.32-3.52,2.36-2.75c2.52,1.88,2.05-.68,2.66-1.41C696.26,954.52,696.13,953.49,698.53,954Zm-19.91-33.41c-1.45.08-3.28,1.21-3.1,1.58a31.26,31.26,0,0,0,3.33,4.86c1-.93,2.79-1.81,2.86-2.8A3.59,3.59,0,0,0,678.62,920.61Zm9.13-47.74c-.55.3-.81.39-.8.45a1.3,1.3,0,0,0,.19.78q8.36,8.5,16.76,16.95c.2.19.64.15,1,.22a3.89,3.89,0,0,0-.45-.77c-4.13-4.32-8.28-8.61-12.4-12.94C690.54,876,689.13,874.4,687.75,872.87Zm-43.93,45.77c-.38,2.11.45,3,2.31,2.79,1.27-.16,3,.43,3.18-1.9.35-4.44-3-2-4.64-2.47S644.09,918.25,643.82,918.64ZM723,889c-.44-.43.78-2.15-.91-1.61a9.05,9.05,0,0,0-4,2.62c-.82,1-2.33,2.46-1.06,3.84C717.78,894.62,723,890.42,723,889Zm72.06,35.33c1.41.42,2.15.48,2.11-.45,0-.59-.49-1.61-.83-1.64a1.76,1.76,0,0,0-2,1c-.42.88.57,3.18-1.92,2.41a7.19,7.19,0,0,1-1.25-.72c-.24.56-.75,1.15-.69,1.68.2,1.72-.48,1.88-1.88,1.39-.39-.13-1.32.15-1.33.3a5.67,5.67,0,0,0,.26,2c.2.69.71.21,1.13.23,2,.12,1.9-1.62,2.53-2.73.3-.52.45-1.76,1.33-.92,2.3,2.19,1.87-.51,1.93-1.18C794.59,924.59,794.77,924.2,795.06,924.28Zm-63,16.48c-.17,2,.35,2.08,1.32,1.4,1.67-1.16,3.45-2.18,5-3.47.82-.68,3.15-.76,2-2.47s-2.3.33-3.18.87C735.29,938.3,733,939.2,732,940.76Zm-41.58-54.62c0,3.11,4.44,7.56,7.27,7.57a3.16,3.16,0,0,0,.65-.14,3,3,0,0,0-.39-.89q-3.32-3.39-6.69-6.75a2.65,2.65,0,0,0-.71-.37ZM727.62,955c1.24.16,2.22-.09,2.19-2-.07-4.12-3.42-1.22-4.92-2.33-.71-.52-.71.41-.77,1C723.85,954.19,725.23,955,727.62,955Zm32.53-53.72c1-1.06,2.87-2.45,2.66-3-.76-1.81-3-1.43-4.63-1.87s-2.14,1.51-2.07,2.32C756.27,901,758.73,899.82,760.15,901.27Zm-85.27-5.21c.08,1.12.08,1.94.21,2.73.16,1.08-.68,2.56,1.15,3l3.32.8c-.47-1.19-.88-2.4-1.42-3.55a21.17,21.17,0,0,0-1.7-3,1.8,1.8,0,0,0-1.23-.46C675.07,895.56,674.89,896.06,674.88,896.06Zm79.5,22.35a2.56,2.56,0,0,0-.47-.36c-2.42-1.11-4.81-2.3-7.29-3.25-1-.38-1.31.56-1.17,1.39.2,1.15,6.5,3.54,7.52,2.93C753.4,918.87,753.86,918.67,754.38,918.41ZM753,915c-.66-1.35,0-3.69-2.18-4.21-.79-.19-3-.44-2.91,1.09.07,2.44,2,3.7,4.28,4.28C753.12,916.35,752.87,915.61,753,915Zm-46.82,2.49-2.54,1.64,3.82,3.82c.89-.91,2.53-1.85,2.5-2.72C709.9,918.56,708.31,917.71,706.19,917.44Zm20.25-1.94c-1.51.1-2.15,1-1.88,1.76.82,2.33,3.28,1.79,5,2.34,1.16.37,1-1.57,1.82-2.13Zm-82.15,9.2c.46-.15-.81-1.17-.92.49s.47,3,2.47,3c1.12,0,2.45.47,2.7-1.49C648.9,923.9,647.27,924.13,644.29,924.7Zm63.31-27.4c-2.42.16-4.59.35-5.91,2.26-.17.24,1.72,2.29,1.79,2.24,1.88-1.29,3.65-2.74,5.44-4.17Zm5.62,14.42c-.15.18-.52.53-.48.6.26.39.56.91,1,1,3.1,1,6.21,1.89,9.34,2.77.3.09.7-.13,1.05-.21-.13-.32-.19-.87-.4-.94C720.26,913.87,716.82,912.82,713.22,911.72Zm62.57,1.83c2.09-1.43,4.05-2.74,6-4.11.44-.31,1.51-.47.85-1.28a1.91,1.91,0,0,0-1.83-.26c-1.93,1.15-3.76,2.46-5.6,3.76a1.07,1.07,0,0,0-.31,1C775,913,775.46,913.24,775.79,913.55ZM745.33,879c-1-2.55-3.36-3.63-5.37-5-.59-.39-.52.88-.44,1.28.56,2.82,3.39,3.44,5.13,5.14ZM766.82,952c.51-.81,1.14-1.57,1-1.69-1.55-1.81-3.19-3.55-4.87-5.25,0,0-.77.63-1.18,1C763.41,948,765,949.89,766.82,952Zm-55.41-50.22c-.41-.2-.67-.3-.9-.44-3.11-1.88-4.1,1.56-6.07,2.49A12.19,12.19,0,0,0,702,906c1-.36,1.95-.69,2.91-1.08,1.82-.75,3.63-1.53,5.43-2.32A9.45,9.45,0,0,0,711.41,901.82Zm-4.35-15.34c1.18-1.24,3.17-1.11,3.45-2.7.13-.72-.83-1.63-1.3-2.45a18.51,18.51,0,0,0-3.5,2.4C705.48,884,706.52,885.43,707.06,886.48Zm73.69,68.64c0-1.33-.62-1.87-1.76-1.78-1.71.13-2.35,1.33-2.48,2.79a1.38,1.38,0,0,0,1.57,1.62A2.73,2.73,0,0,0,780.75,955.12ZM726.2,913.6c1-.13,2.32.49,2.35-1.51,0-1.83-1.11-1.58-2.18-1.53s-2.54-.57-2.51,1.56C723.89,914,725.12,913.52,726.2,913.6Zm-.46-21.55c-3,1.39-6,2.64-8.77,4.08-.9.46.09.61.4.76,1.35.66,7.79-2.8,8.43-4.54C725.83,892.27,725.76,892.16,725.74,892.05Zm-35.66-13c-2.13,1.14-4.21,2.25-6.27,3.37a.49.49,0,0,0,.13.32c3.28,1.75,5.09,0,6.46-2.75C690.61,879.51,690.82,879.05,690.08,879Zm16.84,11.59c-.15.08-.64.18-.72.41-.26.75.35,1,.92,1.17,2.44.65,4.89,1.29,7.34,1.89a2.79,2.79,0,0,0,1.08-.24c-.25-.33-.43-.87-.74-1C712.27,892.07,709.71,891.38,706.92,890.59Zm41.66,4c-.56-1.75.57-3.7-.57-5.46a33.9,33.9,0,0,0-.66,5.53c.06,1.81-.75,3.74.47,5.45C749.26,898.45,748,896.45,748.58,894.6Zm-72.28-.35c-1.2-.36-2.4-.76-3.61-1.06-1-.25-2-.38-3-.56,0,.37-.11.86.08,1.09,1.18,1.46,2.44,2.87,3.68,4.29C674.13,896.58,672.2,893.16,676.3,894.25Zm70.5-10.83c1-.59,2.38.06,3-1.23,0-.11-.41-.59-.7-.69-2.73-.91-2.5-2.61-1.33-4.63.13-.22,1-.4.23-.76-.22-.1-.83.33-1.09.65-1.51,1.85-.58,4.12-1,6.18C745.87,883,746.49,883.26,746.8,883.42Zm2.78,3.75c1.1-.36,3.35,0,3.18-1.17-.28-1.85-2.57-.78-3.94-1.2-.85-.25-2.46-.19-2.34,1C746.63,887.22,748.41,886.78,749.58,887.17Zm-3.49,14.42c2.65.95,4.56,1,6.46.24a1.38,1.38,0,0,0,.45-2.26c-1.1-1.22-2.25.73-3.53.31-.13,0-.53.75-.8,1.16a2,2,0,0,0,.43.24l1.74.36c-.73.07-1.47.18-2.2.19S747.4,901.72,746.09,901.59Zm-5.56-30.45c-.25.6-.67,1.29-.56,1.38,1.72,1.5,3.46,3,5.31,4.33.36.25,1.31-.66.91-1C744.48,874.22,742.6,872.81,740.53,871.14ZM725.21,973.58a3,3,0,0,0,.1.86,5,5,0,0,0,3.14,3c.21.07.68-.06.72-.19.47-1.5-1.4-1.28-1.69-2.23-.16-.54-.19-1.12-.34-1.66s.53-1.82-.53-1.83S725.18,972.53,725.21,973.58Zm-23.89-49.67c.23,1.18.59,2.67,2.5,2.85,1.12.1,1.57-.7,1.5-1.68-.12-1.66-.73-3.14-2.62-3.35C701.6,921.61,701.35,922.6,701.32,923.91Zm-19.66,35.67a3.91,3.91,0,0,0,2.41,2.82c.38.17,1.18.22,1.26.06.8-1.55-1.35-1.21-1.48-2.22a7.62,7.62,0,0,0-.2-1.52c-.2-.6.62-1.79-.59-1.71C682.15,957.06,681.58,958,681.66,959.58Zm102.47-26.52c-1,.22-2.84.22-2.66,1.09.31,1.5,2.13,1.61,3.56,1.77.93.1,1.42-.32,1.44-1.28C786.5,932.85,785,933.42,784.13,933.06Zm-19.55-8.87a5.62,5.62,0,0,0,0,1q1.7,8.31,3.42,16.62a2.36,2.36,0,0,0,.29.57c.05-.23.2-.48.16-.69q-1.69-8.31-3.43-16.61A5.08,5.08,0,0,0,764.58,924.19Zm-45.25,43.52c.82.07,1.77-.15,1.39-.51a40.24,40.24,0,0,0-4.7-3.59c-.1-.06-.79.41-.76.55C715.74,966.51,717.56,967.29,719.33,967.71Zm6.77-10.31-.49-1.35-4.4,3.58c.3.27.81.8.87.76C723.37,959.38,725.5,959.43,726.1,957.4Zm-79.87-11.75c-.23-.68.39-1.67-.58-1.65a1.54,1.54,0,0,0-1.45,1.67c.11,1.94,1.92,4,2.92,3.43C649.55,947.76,644.39,947.37,646.23,945.65Zm30.21,7.75.87-.63c-1.25-1.32-3.33-1.64-4.22-3.46-.07-.15-1.08.16-.86.89C672.82,952.15,674.32,953,676.44,953.4Zm73.18-76.8a2.66,2.66,0,0,0-2,2.36,1.09,1.09,0,0,0,1.24,1.32,2.12,2.12,0,0,0,2-2.26A1.26,1.26,0,0,0,749.62,876.6ZM639.17,940.28l.81-.58c-1.31-1.11-2.61-2.23-4-3.29,0,0-.82.6-.77.8C635.72,939.06,637.14,939.85,639.17,940.28Zm43.39,2.65-.47-.81-4.59,3.34c.29.21.76.66.84.6C679.68,945,681.9,945.19,682.56,942.93Zm-4.72,7.24c.25,1.37.2,2.64,1.65,2.61.58,0,1.15-.63,1.73-1a6.05,6.05,0,0,1-2.51-3.64Zm-37.22-13.49c-.06,1.59,0,2.63,1,2.94.55.16,1.69-.11,1.85-.49.65-1.52-1.51-1.07-1.75-2.19-.13-.6.55-1.57-.47-1.71C641.09,935.2,640.69,936.51,640.62,936.68ZM722,962.43a26,26,0,0,0-.27,2.77c0,.87-.24,2.11,1.2,2,.65-.05,1.24-.69,1.86-1.06C723.59,965.15,722.09,964.39,722,962.43Zm-41.91-31.7c.71-1.55,1.32-2.86,1.87-4.19.06-.16-.28-.49-.43-.73-1,1.09-2,2.15-2.87,3.32A12,12,0,0,0,680.07,930.73ZM760,907.79c.17,1.77.33,3.45.5,5.13a33.79,33.79,0,0,0,.13-5.12c-.22-1.85.89-3.73-.18-5.53C760.26,904.13,760.11,906,760,907.79Zm-84.83-21.13c-.59-.59.61-2.11-.92-2.12s-.91,1.48-.92,2.32-.57,2.22.82,2.22C675.75,889.09,674.65,887.53,675.14,886.66Zm58,45.13c0-3.78,0-6.25,0-8.72a5.33,5.33,0,0,0-.38-1.3,1.24,1.24,0,0,0-.89,1.47C732.23,925.66,732.6,928.08,733.16,931.79Zm13.78-6.36c1.07-.23,2.27,0,2.82-1.31-1.65-.15-3.29-.33-4.94-.44a1.17,1.17,0,0,0-.71.38C744.59,925.5,745.91,925.16,746.94,925.43Zm31.28,24.7c-2,.39-3.29,1.2-4,2.82-.06.15.31.5.48.75a8.48,8.48,0,0,1,4.69-2.55Zm.55-4.79c-.37-1.15-.71-2.12-1.83-2-.58,0-1.12.61-1.68.94a14.64,14.64,0,0,0,2.06,2.1C777.49,946.46,778.31,945.67,778.77,945.34Zm-34.08-63.77c-1.83-1.47-3.63-2.92-5.45-4.34-.1-.08-.4.09-.61.14,1.09,1,2.16,2.1,3.26,3.13a17,17,0,0,0,1.73,1.45,1.22,1.22,0,0,0,.79.09C744.5,882,744.57,881.79,744.69,881.57Zm2.62,40.76c1-.19,2.32.3,3.07-1.07l-2.86.07a8.05,8.05,0,0,0-1.39,0c-.89.16-2.46-1-2.45-.09,0,1.16,1.79,1,2.93,1.08Zm-102.18,7.95-.5-.75-4.4,3c.2.18.54.57.59.53C642.19,932.09,644.3,932.29,645.13,930.28Zm34.57-38.52c-1-.14-1.11.38-1.06,1,.16,1.8,1.8,1.23,2.79,1.7.11,0,.59-.34.57-.38C681.52,893,681.1,891.8,679.7,891.76Zm32.12,30.32c-.78-.34-1.22-.72-1.55-.64a2.93,2.93,0,0,0-2,2.52c-.24,1.09.83.85,1.27.85C711.23,924.82,710,923,711.82,922.08Zm-11.93-56.81c-.89.08-2.3-.15-2.34.87s1.36.73,2.17.74,2.3.14,2.35-.81S700.73,865.35,699.89,865.27Zm-10,21.43c-.73-1.06.16-2.65-1.24-3.3-.28-.13-1.06.79-1.6,1.22.8.89,1.61,1.77,2.42,2.66Zm-11.58,76.54c.23.69.16,2.11.85,1.78,2.33-1.09-1-3.68,1.06-5.08,0,0-.21-.32-.32-.5C678.54,960.37,678.63,961.9,678.32,963.24Zm-37.13-13.41.56,1.74a5,5,0,0,0,.89-.33c1-.64,0-1.15-.1-1.73a7.63,7.63,0,0,1,.05-1.65c0-.56,1-1,.27-1.64a7.78,7.78,0,0,0-1.24,1.53A8.88,8.88,0,0,0,641.19,949.83Zm80.46,28.11c.14.68,0,2,.67,1.71,2.27-1-.86-3.54,1.06-4.89,0,0-.21-.34-.32-.52C721.68,975.15,722,976.67,721.65,977.94Zm-14.58-97.57c.16-.13.64-.41.61-.49-.44-1-.82-2.17-2.25-2.31-.62-.05-1-.06-1.07.69C704.22,880.19,705.89,879.74,707.07,880.37Zm58.77,71.39c-.43.56-.57.66-.55.73.37,1.51.75,3,1.13,4.52.78-.29,2.28-.45,2-1.24C767.85,954.44,765.58,954.26,765.84,951.76ZM678.9,884.21l10.4-5.65c.06,0,.08-.18.12-.27a1.76,1.76,0,0,0-.62.08c-3.23,1.7-6.45,3.4-9.67,5.13-.21.11-.33.4-.5.6Zm95,73.94c0-.83-.26-1.34-1.07-1.28a1.61,1.61,0,0,0-1.58,1.68c-.07.7.26,1.13,1,1.1A1.66,1.66,0,0,0,773.89,958.15Zm-2.32-42.55c.68.12,1.36.24,1.25-.56-.21-1.61-1.78-1.14-2.74-1.61-.46-.22-1-.09-1,.55C769.16,915.76,770.86,915,771.57,915.6Zm-90.38-11c1.28-1,.39,4.6,2.25.87.46-.92-2.31-1.15-3.67-1.43-.21,0-.84.62-.78.77C679.91,907.12,680.38,904.4,681.19,904.57Zm36.17,63.7c-1,0-.68.74-.7,1.22,0,.75-.06,1.62,1,1.65.89,0,1.29-.56,1.33-1.45C719.05,968.48,717.94,968.7,717.36,968.27Zm47.94-12.21c-.26-1.42-.06-2.89-1.25-3.3-.7-.24-.5,1-.45,1.5.09,1.06.11,2.21,1.14,2.93Zm-76.36-78.64L687,876c-.59,1-1.18,1.92-1.76,2.88.18.09.42.3.53.25C686.71,878.64,687.66,878.11,688.94,877.42Zm-3.07,36.12c.46,1.43-.21,2.9.93,4,.13-.35.46-.77.36-1-.59-1.59.48-3.42-.76-4.89C686.21,912.3,686,913,685.87,913.54Zm98.87,13.55c-.7-1-1-2.16-2.19-2.24-.4,0-.84.51-1.26.79.86.72,1.7,1.45,2.59,2.11C784,927.8,784.42,927.34,784.74,927.09Zm-23.08-16.2c.38-3.94.6-6.26.8-8.58l-.58-.08c-.13,2.17-.26,4.33-.38,6.5C761.49,908.9,761.52,909.07,761.66,910.89Zm-32.28,62.29c-.16-.81.53-2-.63-2.23-.82-.18-.81.82-.74,1.42.12.94-.58,2.47.72,2.67S729,973.77,729.38,973.18ZM778,924.26l.17,1.36c.08-.54.21-1.07.24-1.61a14,14,0,0,1,2.63-7.42,4.43,4.43,0,0,0,.39-1,3.94,3.94,0,0,0-.88.72A14.54,14.54,0,0,0,778,924.26Zm-50.42,26.13a15.66,15.66,0,0,0,2.6-.36,11.82,11.82,0,0,0,2.12-1.09c-.67.15-1.33.33-2,.43a19,19,0,0,1-3.26.33,27.76,27.76,0,0,1-3.47-.54C724.69,950.35,726.23,950.07,727.59,950.39Zm61.27-15.95c1.1.17,1.46-.76,2-1.51a5.34,5.34,0,0,0-1.68-.76c-.89,0-1.25.62-1.24,1.5C787.91,934.28,788,934.7,788.86,934.44Zm-7.11-3.56a3,3,0,0,0,2.65-.7,12.55,12.55,0,0,0,1.16-1.37c.05-.08-.41-.63-.45-.61a4.63,4.63,0,0,0-1.58.95C782.76,930,782.08,930.94,781.75,930.88ZM740,924.11c.8-1.08,2.38-1,2.54-2.36,0-.22-.62-.76-.91-.73-1.36.15-1.49,1.42-1.92,2.39C739.62,923.53,739.82,923.77,740,924.11Zm46.44-16.65c-.34-.59.59-1.75-.77-2-.17,0-.72.73-.64.88.49.92-.56,2.51.84,2.81C786.73,909.37,786.3,908.15,786.41,907.46Zm-66.94,64.78-1.2,1c.73.7,1.45,1.41,2.21,2.07,0,0,.75-.66.7-.73C720.7,973.81,720.12,973.1,719.47,972.24ZM686,958.89c-.33-.79-.64-1.54-1-2.29a20.67,20.67,0,0,0-.73,2.36c-.11.65.12,1.39.91,1.38C685.41,960.34,685.64,959.49,686,958.89Zm-11.82-50.14c0,2.65,0,5.35,0,8,0,.2.39.4.6.59.13-.23.43-.59.36-.68C673.35,914.18,674.73,911.3,674.13,908.75Zm-20,14.85c-.22.29-.71.64-.73,1-.07,1.37,1.55.89,2,1.71.14-.28.44-.59.4-.85C655.67,924.62,655.42,923.79,654.11,923.6Zm27.47-5.09-2,1.38c.51.34,1.15,1.07,1.49,1a7.51,7.51,0,0,0,2-1.48Zm47,9.83c.43,1.21-.52,2.56,1,3.22,0,0,.44-.46.4-.67-.25-1.51-.56-3-.86-4.5Zm-82.44-4.58c1.57-.3,3.18-.21,4.45-1.3-1.13.19-2.25.42-3.39.56a8.35,8.35,0,0,1-1.73,0c-1-.08-2-.21-3-.31C643.51,923.81,645,923.4,646.12,923.76Zm117.94-16c0,.21-.21.67-.13.72q2,1.21,4.15,2.32c.12.06.42-.21.63-.33C767.33,909.62,766,908.81,764.06,907.72ZM777,930c-.37.13-1.19-.17-.89.62a2.88,2.88,0,0,0,2.68,1.6c.15,0,.33-.25.49-.39C778.38,931.36,778.34,929.85,777,930ZM652.59,913.8c-1,.47-2,.69-1.86,1.94,0,.39-.19,1.08.62.89a2.2,2.2,0,0,0,1.6-2.19C653,914.24,652.71,914,652.59,913.8Zm84,38.27c-.42-.79-.17-2-1.2-2-.53,0-1.07.71-1.61,1.11.77.48,1.53,1,2.32,1.43C736.14,952.65,736.43,952.25,736.58,952.07ZM724.14,975.5c-.31.63-.61,1-.61,1.3a1.38,1.38,0,0,0,1.39,1.45c.4,0,.81-.41,1.22-.64Zm-48-48.42a2.21,2.21,0,0,0-1.89-2.14c-.87-.12-.92.72-.89,1.34a2.05,2.05,0,0,0,1.76,2.19C676,928.6,676.12,928,676.12,927.08Zm82.7,22.23c.34.81.71,1.67,1.08,2.53.16-.41.49-.84.46-1.24-.07-1,.09-2.13-1-2.82Zm-47.7-33.71c-.09-2.08-2.19-.58-2.66-1.8-.17.25-.5.51-.48.75.08,1.83,2.07.22,2.56,1.39Zm36.62,11.49,2.39-.84c-1,.09-1.92.19-2.88.25a7.06,7.06,0,0,1-1.38-.06c-.83-.13-1.66-.31-2.48-.47.93.37,1.86.76,2.8,1.11A8.64,8.64,0,0,0,747.74,927.09Zm29.87,1.43c-.08-.7-.26-1.33-1.16-1-.47.16-1.34-.45-1.37.55s.72,1.23,1.54,1.29C777.18,929.37,777.7,929.31,777.61,928.52ZM642.16,953.44c-2-1.55-3.16-2.34-4.15-3.33s-2-2.4-3-3.62a9.93,9.93,0,0,0,3.67,4.82C639.47,951.9,640.38,952.36,642.16,953.44Zm35.1,7.41c.3-.47.71-1,.64-1.06a11.51,11.51,0,0,0-1.72-1.77c-.06,0-.56.4-.86.62Zm42.18,1.47c-.2,0-.55.53-.46,1.34.07.61-.32,1.73.64,1.64,1.23-.11.53-1.51.93-2.25C720.7,962.75,720.84,962.2,719.44,962.32Zm52.19-48.87c.43-.23,1-.45,1-.54-.26-1.28-1.5-.91-2.32-1.25-.27-.12-.74.22-1.12.35ZM685,941.71c.9-.18,1.84.26,1.89-.81,0-.32-.75-1-.93-.93a15.46,15.46,0,0,0-2.18,1.27Zm-32.4,7.58c-.67-.39-1-.7-1.18-.67-.93.11-1.86.34-2.21,1.38,0,.09.44.52.56.48C650.58,950.18,651.38,949.8,652.57,949.29ZM674,955.41c.09.53-.07,1.27.8,1.24s.93-.8,1-1.5c.11-.87-.54-1-1.07-1C673.77,954.09,674.06,954.89,674,955.41Zm81.59-71.95c.86-.25,1.63-.13,1.63-1.07,0-.52,0-1.11-.77-1s-1.44.23-1.38,1.16C755.05,882.88,755.38,883.19,755.54,883.46Zm42,43.56c-.2-.15-.44-.47-.7-.5-.92-.09-1.18.66-1.26,1.33a1.14,1.14,0,0,0,.74.85C797.32,928.77,797.28,927.89,797.58,927Zm-5,3.74c.56,0,1.07,1.71,1.52.11.09-.33-1-1-1.49-1.5-.38.55-1.19,1.24-1.06,1.61C791.93,932.16,792.09,930.27,792.55,930.76Zm-34.13-13.62a2.44,2.44,0,0,0,1.48-2.35c0-.18-.26-.41-.41-.61-.47.76-1,1.5-1.39,2.29C758,916.6,758.3,916.91,758.42,917.14Zm-77.7,43.74c-.18.53-.44.89-.39,1.19.15.83.61,1.51,1.56,1.48.25,0,.5-.43.75-.67Zm9.47,1.75c-.68-.33-1-.61-1.2-.56-.84.16-1.73.35-2,1.34,0,.09.45.49.58.44C688.32,963.55,689.06,963.17,690.19,962.63ZM770.06,958l2.3-2c-.25-.16-.59-.51-.73-.44-.82.4-1.59.9-2.38,1.36ZM638.57,942.21c.23-.75-.12-1.07-.83-1.11s-.7.5-.6.93.35,1.46.62,1.49C638.65,943.64,638.58,942.83,638.57,942.21ZM732,920.11l1.7-2c-.24-.2-.57-.61-.72-.55-.69.26-1.44.57-1.36,1.53A5.33,5.33,0,0,0,732,920.11Zm-51.87-25.22c-1-.21-1.23,0-.95.44a2.87,2.87,0,0,0,1.24,1.14c.28.08.77-.54,1.17-.84ZM648.27,946l-.76-1.94a7.27,7.27,0,0,0-.54,1.82c0,.41.37.83.58,1.25Zm-2.73,3.89-1.87-1.79c-.19.22-.58.57-.53.65a6,6,0,0,0,1.18,1.47C644.46,950.29,645,950,645.54,949.84ZM641,946.3c-.8-.54-1.41-1-2.07-1.36-.06,0-.56.55-.55.57a17.33,17.33,0,0,0,1.68,1.64A9.31,9.31,0,0,0,641,946.3Zm117.78-51.15-.44.33c1.52.47,3,1,4.55,1.4.15,0,.35-.12.53-.19Zm-75.43,27.3c-.82.11-1.15.39-.9,1s.46,1.12.82,1.22c.55.14.92-.35.74-1S684,922.43,683.38,922.45Zm61-28.09-1,.58a15.38,15.38,0,0,0,2,.77c.21,0,.77-.39.75-.56C746,894.24,745.23,894.49,744.37,894.36Zm-10.44,82.72c-.74-.12-1.13-.31-1.32-.19a16.44,16.44,0,0,0-1.68,1.34c.24.13.57.45.7.38C732.31,978.23,732.94,977.76,733.93,977.08Zm1.35-30.47.57-.45a18,18,0,0,0-1.76-.87c-.44-.17-.84,0-.69.57C733.59,946.62,734.19,946.75,735.28,946.61Zm-86.34-21.42.69,1.74a8.38,8.38,0,0,0,.58-1.89c0-.32-.44-.68-.68-1Zm47.24-16.1c-.7-.31-1.09-.52-1.51-.68-.93-.36-.46.4-.58.72-.29.76.24,1,.74,1S695.52,909.63,696.18,909.09Zm69.09-12.57c-.47.83-.83,1.43-1.13,2,0,.08.21.3.33.45.53-.48,1.07-1,1.55-1.48A7.73,7.73,0,0,0,765.27,896.52Zm-28.46,13.69-1,.47c.44.27.86.72,1.32.76s1.1-.4,1.12-.66C738.25,909.93,737.5,910.37,736.81,910.21Zm14.76-25.51c.55-.76.95-1.1,1-1.51,0-.23-.39-.76-.69-.83-.6-.12-.95.3-.88.92A8.55,8.55,0,0,0,751.57,884.7Zm-29.12,32c-.5-.13-.54,0-.47.51.1.69,0,1.43,1,1.43.2,0,.49-.47.57-.77C723.8,917,723,916.92,722.45,916.73Zm-67.91-1.5,1.26-.85-1.28-1.08a7.1,7.1,0,0,0-.72,1.25C653.76,914.66,654.22,915,654.54,915.23Zm66.55,1.35a15.26,15.26,0,0,0-1.53-.68c-.82-.27-.57.38-.66.78-.16.68.15,1.08.75,1C720.06,917.59,720.4,917.12,721.09,916.58Zm-64.52,30.27-1.33-1.24-1,1.1a4.72,4.72,0,0,0,1.24.6C655.76,947.35,656.11,947.05,656.57,946.85Zm43.14-68.22.93-.4c-1-.47-2-1-3-1.39-.21-.08-.58.24-.87.38Zm7.3,15.93c.63-.41,1.64.31,1.75-.81,0-.16-.67-.61-.9-.54a8.21,8.21,0,0,0-1.57.95Zm-47.29,51c.58-1.15.91-1.76,1.18-2.4,0-.1-.28-.46-.47-.49-.89-.14-1.19.56-1.46,1.19C658.91,944,659.13,944.24,659.72,945.54Zm124.36-33.33,3.19-1a1.59,1.59,0,0,0-.43-.06l-3.68.6Zm-2.54,7.62c.57-.48,1.59-.05,1.48-1.08a3.37,3.37,0,0,0-.54-1.07c-.41.54-.83,1.08-1.2,1.65C781.23,919.4,781.43,919.63,781.54,919.83ZM737.42,935.5l.9-.36c-.82-.35-1.63-.73-2.46-1-.24-.09-.58.11-.87.17Zm9.59-2,2.17-.81c-1.38,0-2.76-.07-4.14-.08-.14,0-.28.15-.43.23Zm-35.72-29.76-.1-.21L706.36,906l.07.12Zm30.92,20.39a2.89,2.89,0,0,0-.38-.46c-.51.32-1,.7-1.49,1.06a7.1,7.1,0,0,0,1,.49C742.15,925.49,742.15,924.9,742.21,924.15Zm-64.36-20.53c-.52-.26-.89-.62-1.2-.57a1,1,0,0,0-.6.86c0,.29.55.76.78.72S677.39,904.11,677.85,903.62Zm60.27,48.79L737,949.8c-.08.15-.24.31-.21.43.24,1,.52,2.09.79,3.14Zm-11.87,12.77c-.14.63-.22.9-.26,1.18-.12.85.37,1.13,1.1,1.12.18,0,.51-.34.5-.35C727.23,966.57,726.84,966,726.25,965.18ZM673.6,902.87l.38,1.52c.24-.51.68-1,.66-1.53s-.48-1-.74-1.5Zm37.91,25.18-1.55-.84c-.12.23-.38.54-.31.69a1.85,1.85,0,0,0,.78.89C710.61,928.86,711,928.42,711.51,928.05Zm-54.21-1.62c-.1-1.11-.18-2.09-1.09-2.73,0,.12-.13.26-.1.37.31,1.06.64,2.13,1,3.19Zm48.79-44.1,1.2-1a11.91,11.91,0,0,0-1.45-.68c-.11,0-.53.43-.49.53A6.46,6.46,0,0,0,706.09,882.33Zm-67.57,55.85a6.62,6.62,0,0,0,.22-1.68c0-.3-.39-.55-.6-.82a3.42,3.42,0,0,0-.41,1.17C637.74,937.17,638.09,937.48,638.52,938.18Zm64-42-2.73,2c.18.09.43.31.52.25.79-.46,1.56-1,2.31-1.49C702.68,896.82,702.55,896.49,702.5,896.15ZM724,908.31l.23,1.15c.23-.89.49-1.77.68-2.67,0-.25-.12-.54-.18-.82Zm12.12,33.2,4.29-3-.07-.12c-1.24.8-2.48,1.59-3.71,2.4C736.58,940.82,736.54,940.93,736.15,941.51Zm-42.71,17.7s-.44-.33-.52-.26a15.37,15.37,0,0,0-1.32,1.47c.08,0,.23.1.24.08C692.2,959.88,693.49,961,693.44,959.21Zm-10.61-37.1a16.1,16.1,0,0,0,1-1.29s-.49-.5-.56-.46a5.82,5.82,0,0,0-1.09,1S682.51,921.72,682.83,922.11Zm34.78,53.48-.43.23c.77.83,1.53,1.66,2.31,2.47,0,.05.28-.08.42-.13Zm-39-57.9a7.24,7.24,0,0,0-1.36-.56c-.22,0-.48.19-.72.29.21.33.39.9.62.93S677.9,918,678.61,917.69Zm-19.92-4.91c-1.11-.33-1.87-.58-2.64-.77-.11,0-.3.24-.45.37.75.26,1.49.54,2.24.77C658,913.19,658.19,913,658.69,912.78Zm114.68-.91a3.44,3.44,0,0,0,.14-.45c-.78-.31-1.57-.61-2.37-.86-.12,0-.31.19-.46.29Zm-16.51,4,.11.78c.51-.92,1-1.84,1.52-2.77,0-.08-.09-.26-.14-.39C757.32,914,757.13,914.91,756.86,915.89ZM676,949.67l.52,1.1c.17-.64.37-1.27.49-1.92,0-.2-.18-.43-.28-.65ZM734,887c-.76,1.13-1.11,1.63-1.4,2.15,0,.06.24.28.37.43a16.67,16.67,0,0,0,1.37-1.42C734.47,888,734.22,887.61,734,887Zm-59.5,74c-.07.12-.18.27-.16.29.69.76,1.38,1.51,2.09,2.24,0,.05.25,0,.38-.08Zm103.75-8.53c-.16-.06-.33-.18-.46-.16a2.65,2.65,0,0,0-2,1.72c0,.1.07.27.11.4ZM788.68,936c-.54.49-.95.84-1.32,1.23a2.33,2.33,0,0,0,.37.46,12.74,12.74,0,0,0,1.33-1A4.07,4.07,0,0,0,788.68,936ZM702,911.19a4.76,4.76,0,0,0-1.25-.55c-.17,0-.37.43-.56.67a5.28,5.28,0,0,0,1,.71C701.3,912.06,701.59,911.63,702,911.19Zm-30.11,42.88-.33-1.41a5.54,5.54,0,0,0-.17,1.27,6.82,6.82,0,0,0,.43,1.35ZM670.7,958l.33-.05c-.21-1.11-.42-2.21-.65-3.31a1.65,1.65,0,0,0-.3-.46C670.29,955.4,670.49,956.68,670.7,958Zm21.76-38.1.11-.39-3.72-1c0,.09,0,.23,0,.25C690.08,919.1,691.27,919.47,692.46,919.85Zm-16.06-30c-.22.32-.54.64-.49.73a1.4,1.4,0,0,0,.77.68c.23,0,.53-.34.8-.53Zm38.37,78.51c-.08-.59-.15-1.18-.22-1.78a5.74,5.74,0,0,0-.32,1.44,11.25,11.25,0,0,0,.33,1.79C714.63,969.36,714.69,968.88,714.77,968.39ZM696.67,958c.77-.89,1.15-1.3,1.47-1.74a3.4,3.4,0,0,0-.48-.48c-.39.45-.81.88-1.15,1.36C696.42,957.27,696.58,957.56,696.67,958Zm71.15-45c-1.23-.63-2.14-1.11-3.06-1.56-.09,0-.25.05-.37.08.89.52,1.77,1,2.67,1.54C767.16,913.09,767.32,913,767.82,913ZM727.2,929.12l.53,0c-.08-1-.15-2.07-.24-3.11h-.29Zm55-14.93c.24-.38.6-.73.53-.9a1.29,1.29,0,0,0-.8-.64c-.19,0-.48.29-.72.45ZM681.56,950a11.88,11.88,0,0,0-1.21-.91c-.05,0-.32.3-.49.46a7.86,7.86,0,0,0,1,.87C680.9,950.45,681.2,950.19,681.56,950Zm90.68,3.63-1.94.78c.19.06.4.2.57.17.7-.16,1.39-.37,2.08-.56ZM643,935.51c-.37.72-.56,1-.52,1a11.58,11.58,0,0,0,1.15.92s.35-.32.32-.39C643.76,936.63,643.47,936.21,643,935.51Zm62.9-42.88a9.54,9.54,0,0,0-1.63-.28c-.22,0-.44.25-.65.38a4.37,4.37,0,0,0,1.13.55C705,893.32,705.28,893,705.94,892.63Zm80,20.54a4.65,4.65,0,0,0-1.17-.5,2.67,2.67,0,0,0-.88.23c.25.19.48.49.77.56S785.23,913.35,785.94,913.17Zm-55.06,37.09c-.06,1.12-.12,1.76-.13,2.39a2.09,2.09,0,0,0,.18.57,16.82,16.82,0,0,0,.72-1.85C731.7,951.21,731.37,950.94,730.88,950.26Zm-5.34,30.2,2.09-1c-.13-.06-.29-.18-.39-.15-.79.26-1.57.54-2.35.82Zm11.78-6-.5-.86a7.06,7.06,0,0,0-.76.88s.34.46.48.43A2.41,2.41,0,0,0,737.32,974.45ZM634.55,941.68H635c-.06-.78-.11-1.57-.16-2.35a1.22,1.22,0,0,0-.28.06C634.55,940.15,634.55,940.92,634.55,941.68Zm103.78-32.15c-.56-.44-.76-.72-.93-.71a8,8,0,0,0-1.27.28c.14.15.27.39.43.41A15.16,15.16,0,0,0,738.33,909.53Zm-39.48,1.17a6.08,6.08,0,0,0-1.26-.59c-.16,0-.38.27-.58.42a5.06,5.06,0,0,0,.93.57C698.1,911.15,698.35,910.93,698.85,910.7Zm43.45,59.88a6.24,6.24,0,0,0-1-.4c-.35.44-.67.91-1,1.39,0,0,.24.22.28.2C741,971.46,741.51,971.13,742.3,970.58Zm4.1-49.76.93-.29c-.24-.18-.47-.51-.71-.52a4.17,4.17,0,0,0-1.16.28ZM732.57,895.9l.11.07v-3.31h-.11Zm-94.85,51.84a1.86,1.86,0,0,0-.23.27q.81.9,1.65,1.77s.19-.1.29-.16C638.88,949,638.34,948.43,637.72,947.74ZM678,892.31c-.47-.16-.73-.35-.88-.29a3.28,3.28,0,0,0-.7.6c.23.12.48.37.68.33S677.56,892.64,678,892.31Zm3.4-8.27c-.31,0-.46-.11-.53-.06-.52.33-1,.69-1.52,1,.15.11.38.34.42.3C680.28,885,680.75,884.56,681.4,884Zm43.36,80-.71-.8c-.19.19-.57.42-.53.57a1.15,1.15,0,0,0,.56.67C724.17,964.57,724.47,964.27,724.76,964.07Zm27.45-43.56c-1-.46-1.7-.78-2.39-1-.09,0-.26.11-.4.17l2,.93A3.68,3.68,0,0,0,752.21,920.51Zm-41.58-10.1c-.17.3-.32.49-.29.53.37.42.76.82,1.15,1.22,0-.14.2-.35.15-.42C711.36,911.32,711,910.94,710.63,910.41Zm73.33-2c.23-.55.41-.77.38-.94a4.66,4.66,0,0,0-.38-.9c-.19.16-.54.34-.52.48A6.24,6.24,0,0,0,784,908.43ZM647.31,951.14a8.85,8.85,0,0,0-1.33.14c-.54.24-1.07.52-1.6.78a1.85,1.85,0,0,0,.66,0C645.57,951.9,646.08,951.66,647.31,951.14Zm67-21.71a6.2,6.2,0,0,0-1-.5c-.07,0-.22.3-.34.46a4.28,4.28,0,0,0,.82.48C713.83,929.9,714,929.65,714.29,929.43Zm10,38.16a5.23,5.23,0,0,0,.89.77c.09,0,.36-.29.54-.44a3.07,3.07,0,0,0-.69-.66C724.91,967.2,724.63,967.43,724.3,967.59ZM680,953.46c-.17.32-.35.57-.31.61a8.45,8.45,0,0,0,.84.73c.09-.12.3-.31.27-.34A12.34,12.34,0,0,0,680,953.46Zm-35.65-12.4c.24-.22.54-.42.51-.46a2.32,2.32,0,0,0-.53-.71c-.05,0-.48.23-.46.26A6.9,6.9,0,0,0,644.36,941.06Zm46.1-2.37a5.86,5.86,0,0,0-1.22-.33,3.8,3.8,0,0,0-.77.24c.19.13.37.35.57.37A7.81,7.81,0,0,0,690.46,938.69Zm90.84-12.58c-.37.56-.51.74-.5.75.5.44,1,.86,1.54,1.28,0,0,.22-.19.21-.21C782.18,927.37,781.79,926.82,781.3,926.11ZM675.6,949.59l-.61-.78c-.11.23-.35.48-.3.67a3.63,3.63,0,0,0,.48.94Zm-2-58.75-.72.42a2.31,2.31,0,0,0,.76.45c.19,0,.42-.25.63-.39ZM685.91,904c1.09.39,1.43.54,1.78.62a3,3,0,0,0,.79,0,10,10,0,0,0-1-.6A6.49,6.49,0,0,0,685.91,904Zm17.83-25.72c-.24-.27-.41-.55-.49-.53a4.11,4.11,0,0,0-.86.44c.18.15.35.41.56.44S703.38,878.48,703.74,878.31Zm5.14,47.1-.75.37c.43.06.86.15,1.28.17a2.2,2.2,0,0,0,.64-.18Zm77.3-10.53c.34-.62.53-.82.55-1a4.65,4.65,0,0,0-.11-1,5,5,0,0,0-.53.82C786,913.9,786.11,914.17,786.18,914.88Zm-12.27-2.15c-.15.42-.34.67-.29.87s.31.38.48.56c.14-.2.4-.41.39-.59S774.21,913.14,773.91,912.73Zm-37,35.58-1,.29c.45.13.89.28,1.34.38.14,0,.3,0,.46-.06Zm-53.35,16.24-1.5.6c.13.09.3.29.39.26.47-.18.92-.41,1.38-.62ZM697.4,897l.8-.41a2.52,2.52,0,0,0-.84-.38c-.2,0-.41.26-.62.41Zm-25,26.11,1-.81c-.08-.08-.22-.26-.24-.24a7.53,7.53,0,0,0-.92.68S672.34,923,672.42,923.15Zm31.21-46.51c-.39-.15-.58-.31-.7-.26a4.56,4.56,0,0,0-.81.44c.12.12.28.37.36.35A9.63,9.63,0,0,0,703.63,876.64Zm29.92,75.79c-.43-.18-.68-.37-.93-.35s-.28.32-.42.5a2.54,2.54,0,0,0,.72.24C733.08,952.82,733.24,952.63,733.55,952.43Zm-51.28,1.08-1-.59c-.08.16-.27.42-.22.48a1.75,1.75,0,0,0,.64.47C681.8,953.9,682,953.7,682.27,953.51Zm27.55-39.89c.16-.4.31-.59.28-.74a1.86,1.86,0,0,0-.36-.55c-.14.11-.42.25-.4.32A5.18,5.18,0,0,0,709.82,913.62ZM682.9,951.7c-.11.37-.27.6-.21.74a.76.76,0,0,0,.48.37c.07,0,.35-.3.32-.36A4.84,4.84,0,0,0,682.9,951.7Zm-30-25.43c-.32-.24-.43-.4-.54-.39a5.44,5.44,0,0,0-.78.17c.09.11.18.3.28.31A7.29,7.29,0,0,0,652.86,926.27ZM707.21,911l.07-.25-1.64-.44-.07.26Zm15.92,57.44c.31.29.55.53.8.73,0,0,.21-.17.32-.27a9.35,9.35,0,0,0-.67-.73S723.35,968.26,723.13,968.4Zm37.77-51.47-.42-.62a3.72,3.72,0,0,0-.33.77c0,.07.31.31.42.28S760.8,917.07,760.9,916.93Zm-26,18.45c-.33-.17-.54-.37-.72-.35s-.41.24-.62.37c.14.1.3.31.43.29A3.9,3.9,0,0,0,734.9,935.38Zm-101.28,7.81.26-.08-.4-1.45-.17,0Zm21-26.64,1-.29a3.45,3.45,0,0,0-.87-.21,2.7,2.7,0,0,0-.75.23ZM637.8,946l-.21.16c.22.25.43.5.66.74a1.83,1.83,0,0,0,.24-.15Zm89.06,23.1c-.22-.16-.38-.33-.45-.3a6.41,6.41,0,0,0-.7.45c.09.09.22.28.28.26A8.84,8.84,0,0,0,726.86,969.06ZM785.68,916c-.23-.19-.37-.38-.43-.35a5,5,0,0,0-.7.42c.09.09.2.28.27.26A5,5,0,0,0,785.68,916Zm-12.25,38.67c-.16.24-.35.4-.32.47a2.38,2.38,0,0,0,.4.5c.11-.14.32-.29.31-.43S773.61,954.88,773.43,954.65Zm15.5-40.57a3.06,3.06,0,0,0-.78-.07c-.11,0-.18.22-.27.34a1.85,1.85,0,0,0,.59.13C788.59,914.48,788.7,914.29,788.93,914.08Zm-5.14.3c-.2-.16-.36-.33-.41-.31a7.64,7.64,0,0,0-.69.47c.08.1.21.31.24.29A7.36,7.36,0,0,0,783.79,914.38Zm-140.26,26.8a7.3,7.3,0,0,0-.72-.59,2.33,2.33,0,0,0-.3.29,5.3,5.3,0,0,0,.59.57S643.32,941.32,643.53,941.18Zm13.6-18.68c-1-.1-1.23-.15-1.49-.15a1.12,1.12,0,0,0-.37.14,7.49,7.49,0,0,0,.8.15A6.08,6.08,0,0,0,657.13,922.5Zm78,25.4.57-.4c-.1-.09-.23-.28-.3-.26a2.23,2.23,0,0,0-.54.3Zm11.17-30.17-.3.1a4.33,4.33,0,0,0,.66.46c.06,0,.2-.08.31-.14Zm18.5,33.35a4.3,4.3,0,0,0-.57-.51s-.28.19-.27.27a2.35,2.35,0,0,0,.24.54ZM721,970.49l.54-.58c-.11-.08-.29-.25-.33-.23a1.89,1.89,0,0,0-.42.47S720.93,970.34,721,970.49Zm55.73-35.55.36-.41a1.47,1.47,0,0,0-.48-.25c-.07,0-.23.24-.23.38S776.62,934.83,776.76,934.94Zm-54-21.23a2.23,2.23,0,0,0,.23-.55c0-.06-.28-.24-.33-.2a2.13,2.13,0,0,0-.45.45Zm-26-18.87c.13-.21.28-.39.25-.43a.67.67,0,0,0-.38-.24c-.1,0-.23.1-.35.16Zm5.6.41c-.31-.11-.47-.23-.63-.21s-.24.18-.36.27a2.7,2.7,0,0,0,.48.09A2.26,2.26,0,0,0,702.37,895.25Zm-47.15,26a6,6,0,0,0-1,0c-.12,0-.22.16-.34.25a4.3,4.3,0,0,0,.61,0A4.87,4.87,0,0,0,655.22,921.23Zm80.12,15.31c-.17-.13-.28-.27-.39-.27a1.47,1.47,0,0,0-.43.15c.11.13.2.32.34.37S735.12,936.66,735.34,936.54Zm39.23-.14c-.22-.15-.35-.31-.45-.29a.56.56,0,0,0-.35.29c0,.07.16.33.18.32A4.13,4.13,0,0,0,774.57,936.4Zm8.6-30.16a2.88,2.88,0,0,0-.48-.33,1,1,0,0,0-.31.38c0,.1.06.25.1.38Zm-84.35,1.57a4,4,0,0,0-.71-.47c-.05,0-.19.19-.29.29a1.1,1.1,0,0,0,.35.3C698.28,908,698.43,907.89,698.82,907.81Zm-46.93,15.1.62-.5c-.08-.1-.21-.28-.25-.27a.87.87,0,0,0-.38.3C651.83,922.51,651.88,922.66,651.89,922.91Zm66.27,40.79-.31-.35c-.05.09-.16.19-.14.26a2.53,2.53,0,0,0,.21.44Zm-37.92-45.4c-.16-.14-.27-.34-.37-.33s-.29.17-.43.26c.11.1.22.27.34.29S680.05,918.4,680.24,918.3Zm37.86,55.93-.51-.34c0,.09-.06.22,0,.26a3.88,3.88,0,0,0,.49.4Zm21.09-47.56.28.46c.1-.08.29-.15.29-.23a1.21,1.21,0,0,0-.17-.43Zm4.7-42.34c-.22-.14-.34-.27-.47-.28s-.2.17-.3.26c.12.09.23.24.36.26S743.71,884.45,743.89,884.33Zm-19,87.58c.07-.28.16-.43.13-.56s-.21-.11-.33-.17c0,.1-.11.21-.08.29A1.83,1.83,0,0,0,724.89,971.91ZM768.3,957.5a2.18,2.18,0,0,0-.52-.11c-.09,0-.16.13-.24.2.11.08.22.23.31.22S768.08,957.66,768.3,957.5Zm-91.24,4.09-.4-.33c0,.07-.1.17-.07.22a.54.54,0,0,0,.24.21S677,961.64,677.06,961.59Zm4.3-4.45c.06-.07.17-.15.17-.22s-.11-.15-.17-.23c-.07.08-.18.15-.19.22S681.29,957.07,681.36,957.14ZM644.1,943.22c-.14.08-.29.13-.29.18a2,2,0,0,0,.08.48c.09,0,.25-.09.26-.16A2.35,2.35,0,0,0,644.1,943.22Zm71.52-41.28.29-.34c-.1,0-.22-.06-.29,0a2.06,2.06,0,0,0-.33.33Zm-37.34,53.49a1.41,1.41,0,0,0-.41-.27c-.06,0-.23.11-.23.17a1.5,1.5,0,0,0,.15.38Zm62.93-58.15c-.06-.07-.13-.21-.19-.21s-.2.09-.3.15c.08.09.14.21.24.25S741.13,897.36,741.21,897.28Zm5.27,2.84-.28-.47a1.37,1.37,0,0,0-.29.3s.07.24.14.25A1,1,0,0,0,746.48,900.12ZM714.24,973l-.27-.4c-.05.12-.15.25-.11.34a1.54,1.54,0,0,0,.29.35Zm-1-3.41-.11-.18a1.63,1.63,0,0,0,0,.31c0,.06.06.12.1.18C713.22,969.83,713.22,969.73,713.23,969.62Zm10.31,2.28c-.55-.13-.71-.21-.85-.18a.72.72,0,0,0-.4.26c0,.06.05.23.08.35Zm39.69-71.35-.14-.24c-.06.09-.16.16-.17.25s.07.17.11.26ZM778.69,928l-.08-.32a1.56,1.56,0,0,0-.1.4c0,.09.08.17.13.26C778.65,928.18,778.67,928.07,778.69,928Zm-75.56-20.34c-.13-.06-.23-.15-.3-.13a3.18,3.18,0,0,0-.43.25c.11.07.24.21.31.18S703,907.73,703.13,907.61Zm41.72-24.42-.21-.16c0,.08-.15.15-.14.22s.12.12.19.17ZM643,953.81a.44.44,0,0,0-.15,0,.6.6,0,0,0-.15.09h.17A.38.38,0,0,0,643,953.81Zm89.59-10,.18-.23c-.08,0-.17-.09-.22-.07s-.14.14-.21.22Zm8.55-17.25-.32.17a1.69,1.69,0,0,0,.27.32s.24-.11.23-.14A1.46,1.46,0,0,0,741.18,926.56Zm33.27-11.26-.21-.19-.24.29c.09,0,.18.13.26.11S774.39,915.38,774.45,915.3Zm-2.39,27.63-.29.07c.1.06.19.16.3.17s.17-.07.26-.12Zm-115-29-.22-.2-.23.28c.09,0,.18.14.27.14S657,914,657.09,913.92Zm105.65,38.91-.17-.22c-.08.08-.19.14-.21.23s.11.15.18.23Zm23.17-21.54.24.13c.05-.09.14-.18.12-.25a.26.26,0,0,0-.22-.12C786,931.07,786,931.2,785.91,931.29Zm10.25-.13-.1-.31c-.08.06-.22.11-.24.18s.06.22.1.32Zm-3.87,3c-.08,0-.18-.14-.24-.13s-.14.15-.21.22l.35.2C792.22,934.36,792.26,934.26,792.29,934.16Zm-17.95,8.5c-.08,0-.22.06-.25.13s0,.18.09.28l.35-.17Zm-1.7-.37.11-.27a1.35,1.35,0,0,0-.28,0s-.06.09-.09.13Zm-127-3c-.08.08-.21.18-.2.23s.15.17.22.25.19-.14.18-.18A1.2,1.2,0,0,0,645.65,939.33ZM698.25,906c0-.07-.11-.22-.13-.21a1.4,1.4,0,0,0-.29.16c0,.07.1.21.12.2A.94.94,0,0,0,698.25,906Z" transform="translate(-631.4 -845.79)"/><path class="cls-2" d="M728.31,936.24l.9.25-.16.33-.72-.6Z" transform="translate(-631.4 -845.79)"/><path class="cls-2" d="M727.91,896.15a3.64,3.64,0,0,1,2.81-1.65c.13,0,.5.51.47.56a3.6,3.6,0,0,1-2.83,1.54Z" transform="translate(-631.4 -845.79)"/><path class="cls-2" d="M727.91,896.15l.45.45c-.27.5-.44,1.17-1.22.92-.19-.06-.42-.62-.4-.64A10.88,10.88,0,0,1,727.91,896.15Z" transform="translate(-631.4 -845.79)"/><path class="cls-2" d="M772.46,934.7c-.54-.78-1-1.21-1.15-1.72a1.05,1.05,0,0,1,1-1.33c.88,0,1.15.78,1.14,1.44C773.46,933.51,773,933.94,772.46,934.7Z" transform="translate(-631.4 -845.79)"/><path class="cls-2" d="M771.33,928c.83,0,.83.7.91,1.26.1.77-.33,1.3-1,1.24-.31,0-.71-.68-.8-1.1A1.1,1.1,0,0,1,771.33,928Z" transform="translate(-631.4 -845.79)"/><path class="cls-2" d="M704.71,924.4c-.55.5-1.09,1.1-1.18,1a2.9,2.9,0,0,1-1.13-1.23c-.09-.23.5-.71.78-1.08Z" transform="translate(-631.4 -845.79)"/><path class="cls-2" d="M676,926.87c-.51.43-1,1-1.09.91a2.76,2.76,0,0,1-1.06-1.11c-.08-.16.59-.91.69-.87A8.22,8.22,0,0,1,676,926.87Z" transform="translate(-631.4 -845.79)"/></g></svg>