<svg xmlns="http://www.w3.org/2000/svg" viewBox="0 0 155.07 155.07"><defs><style>.cls-1{fill:#0d426c;}.cls-2{fill:#fff;}</style></defs><title>p_spirit</title><g id="Layer_1" data-name="Layer 1"><circle class="cls-1" cx="77.54" cy="77.54" r="77.54"/><path class="cls-2" d="M477.56,988.07c-1.75-3-4.31-5.81-4.87-9-.27-1.52,3.19-3.79,5.13-5.55.49-.45,1.58-.26,2.4-.3a10.87,10.87,0,0,1,1.5.14,5.8,5.8,0,0,0-.35-1.92c-2.91-4.8-6-9.42-11.31-12-.36-.17-.52-.7-.86-1-.62-.48-1.31-.89-2-1.33a6.91,6.91,0,0,0-.4,1.69c.05,2.67.9,5.63,0,7.93-.76,2-3.26,3.67-5.37,4.68-.85.4-3.46-1-4-2.18-1-2.24-2.19-5.69-1.17-7.15,1.26-1.82,4.69-2.12,7.17-3.1.32-.13.82-.52.78-.7-.12-.62-.35-1.64-.71-1.72-3.73-.81-7.5-1.46-11.3-2.16.77,3.19,2.32,6.37-1.8,8.31-2.18,1-4.37,2.07-6.07-.69s-3.32-5.81,0-9c-3.87-.67-7.64-1.19-11.34-2a27.67,27.67,0,0,1-4.92-2.16l2-2.28c-4.34-1.05-1.26-4.75-1.68-7.26a3.91,3.91,0,0,1,2.45-1c5.83.62,11.64,1.41,17.53,2.15a77.12,77.12,0,0,0-2-9c-.83-2.42.38-2.82,2.12-3.25,3.83-.94,7.66-1.87,11.46-2.91a12.87,12.87,0,0,0,2.63-1.48h5.06l-.75-1.55,1.17-.51c-.25-4-.53-8.09-.7-12.13a3,3,0,0,1,.81-1.72,1.22,1.22,0,0,1,1.15.15,3.84,3.84,0,0,1,.59,1.82c.13,4.64.2,9.27.35,13.9,0,.22.6.56.95.6,3.61.42,7.22.9,10.85,1.07.71,0,1.52-1.18,2.22-1.88a3.24,3.24,0,0,0,.46-1.07,4.51,4.51,0,0,1,.64,1.09c.11.45-.05,1,.05,1.43a1.32,1.32,0,0,0,.58.85,2.92,2.92,0,0,0,1.14,0,5.34,5.34,0,0,0-.22-1.07c-.55-1.32-1.22-2.59-1.67-3.93a1.48,1.48,0,0,1,.56-1.36c3.89-1.44.72-4.45,1.52-6.54-.85-.16-2-.73-2.49-.39-2.63,1.72-3.79.67-4.37-2-.44-2-.88-4-1.33-6.07-.6-2.7.73-3,3.15-3.36,5.12-.71,10.15-2.12,15.25-3.09.48-.09,1.67,1,1.67,1.48a45.24,45.24,0,0,1-.65,5.13,1.31,1.31,0,0,0,.27.86c.57.78,1.19,1.52,1.79,2.27-1.75,1.34-3.49,2.68-5.25,4-.57.43-1.62.72-1.72,1.23a39,39,0,0,0-.75,6.56c0,.23,1.68.72,2.57.72,6.07,0,10.56,2.32,13.78,7.71,1.84,3.09,4.94,5.4,7.06,8.36.54.75-.06,3.39-.89,3.86-4.21,2.43-8.65,4.46-13,6.56-1.22.59-2.63.79-3.81,1.45a2.2,2.2,0,0,0-.07,2c3.31,2.23,6.71,4.33,10.11,6.41a1.13,1.13,0,0,0,1-.16c5.2-3.38,7.92-2.55,10.34,3.16v2.88c-2.39,1.69-4.6,4.15-7.24,4.74-1.21.27-4.55-3-4.63-4.84-.17-3.87-2.61-4.81-5.17-6.11a25.89,25.89,0,0,0-2.33-1.23c-2.9-1.12-5.56-4.15-9-1.2-.16.14-.55,0-1.26,0l1.24,1-.74.93,3.68-1.54-4.46,3.34-.42-3.32-.75.16,1.16,3.14c1.46-.37,3.25-.33,4.31-1.19,2.56-2.09,3.86-.82,4.86,1.39,1.82,4,3.45,8.16,5.24,12.21A1.8,1.8,0,0,0,506,971c2-.31,4-.87,5.95-1.19a1.61,1.61,0,0,1,1.41.69,1.79,1.79,0,0,1-1.53,2.23c1,1.71,2.27,3.25,2.75,5,.32,1.15-.44,2.65-.94,3.91a2.82,2.82,0,0,1-2.13-.3c-2.08-2.18-4.24-3-7.26-1.78-.67.27-2.72-1.2-3-2.19s1.21-2.77.92-3.93a90.76,90.76,0,0,0-3.7-11.21,3.83,3.83,0,0,0-2.79-2.07,52,52,0,0,0-7.17,1,3.58,3.58,0,0,1-1.9,0c-.38-.19-.52-1-.66-1.51-.29-1.07-.5-2.15-.73-3.16a32.52,32.52,0,0,1-4.08,1.9c-3.41,1-3.33,2.57-1.66,5.41,2.11,3.57,6.22,6.62,4.22,11.74-.06.16.16.43.28.64,3.32,6.22,2.21,9.37-4.22,11.94Zm18-82.33.85,3.34.42-.17-1.3-3.15h-2.1l1.06,5.39c.55-1.77.88-2.58,1-3.42A12,12,0,0,0,495.57,905.74ZM498,941.58c1.26,1.34,3.06,4.06,3.71,3.81,4.83-1.85,9.42-4.31,14.1-6.55a7.7,7.7,0,0,1,1.54-.37l-.83-.75-2.8.58-.12-.42,2.91-1c-2.45-2.37-4.36-5.55-7-6.4s-6.29.47-9.65.87c0,0-.09-.41-.2-.87l-5.05.56,0,.39h4.53c-.63.44-1.37.31-1.88.6-1,.57-2.76,1.66-2.64,2a66.74,66.74,0,0,0,3,7.16Zm-27.4,1.11,17.75,3-1.33.59h7.9l-1.52-1.77-.45,1.22c-1-.37-2-.78-3.07-1.11-3.72-1.17-4.42-3.44-2.06-6.57a1.86,1.86,0,0,0,.09-1.35,55.86,55.86,0,0,1-1.42-6c-.1-.76.83-1.63,1.24-2.36l-6.7,2.1a19.65,19.65,0,0,1,3.09-2.13c.21-.15-.45-1.47-.43-1.41l.58.3-5.84.88,3-1.33a26.89,26.89,0,0,0-4.77-.4c-2.21.22-6.2-2.84-5.79,2.82,0,.3-.21.64-.14.91s.37.37.6.49l5,2.59-3.05,1.69c-.53.28-1.07.54-1.61.81l.06.32,2.37-.71c-.4.88-1,2.28-1.66,3.66C471.85,940.09,471.27,941.27,470.59,942.69Zm-21.67,9.52,8.73-8.13-27.25-5.79c.94.85,1.62,1.21,1.59,1.48-.38,3,1.46,6.93-4.16,8.82Zm29.9-1.71a9.52,9.52,0,0,0-2.7-1c-4.11-.52-8.39-.33-12.34-1.4-5.12-1.4-6.68,2.34-9.61,5.24l23.53,4,.23-1.2-.7-.88,2.85-1.26Zm5.59-.76-.08.84a7.64,7.64,0,0,0-2.15-.22,5.6,5.6,0,0,0-2.08,1c-.17.12-.07,1,0,1.06,1.3.29,2.77,1,3.89.62,3-1,5.81-2.41,8.69-3.66l.13-1L467,944l-.07.79,1.68-.15-.2.93-6.13-1.46c-1.25.63-2.68,1.25-4,2-1.54.92-3,2-4.32,2.88l1.41,2c5.2-4.79,5.21-4.81,9.48-3.86a50.66,50.66,0,0,0,5,1.26C474.71,949,479.56,949.31,484.41,949.74Zm-30.36-7.42,4.14-1.77c-1.77-3.28-3.5-6.59-5.51-9.73-.08-.13-4.11,1.48-4.09,2.23a18.21,18.21,0,0,0,1.88,8c.65,1.21,3.18,1.42,4.86,2.07,0-.07,0-.14,0-.22Zm43.82-20c-5-1.12-5-1.12-5,4a4.33,4.33,0,0,0,.05,1.77c.28.58.91,1.39,1.41,1.4,3.08.07,6.17,0,9.24-.14,1.71-.08,3.4-.39,5.09-.59l-.06-.44-10.53,1.06v-.54l9.44-1c-.58-1.13-1-2-1.52-2.95-1.23-2.2-10.44-2.88-11.4-.6l-.47-1.31ZM465,934.62c.48-.24.65.26,1.94,3l.26-3.36-.89-.58c.61-3.12,1.1-5.62,1.57-8.12,0-.08-.13-.27-.19-.26-2.52.27-5.13.22-7.54.91-3.91,1.11-7.68,2.71-11.52,4.1v.93l7.25-3,.3.75-2.77,1,2.34,1.81a14.12,14.12,0,0,1,1.42-1.69c1.42-1.29,2.89-3.18,4.74-.62C463,931.09,463.93,932.85,465,934.62Zm27.24-11.71a42.26,42.26,0,0,0-.13-6.57c-.1-.61-1.76-1.07-2.77-1.37-.23-.06-1.06.84-1.07,1.31-.08,4.14-.15,8.3,0,12.43,0,.85,1.21,1.64,1.86,2.46.69-.8,1.83-1.52,2-2.41A38,38,0,0,0,492.23,922.91Zm-13,55.37-.17,2.65.64.11.53,5,2-.77.18.35-2.36,1.31.62.64,4-4.3-.5-.4.89-2.8-1,.09v-2.2l-3,.41,2.6-1.72-2.67-1.93L477,976.73l-.24-.45,4.43-2.53-6.26,1.62-.19,1.28Zm31-21.73,6.28,6.33-.26.3-.49,2.89,1.13.4,2.81-7.32-1.14-.46-1.53.91c3.16-3.1-.5-3.69-1.81-3.92C513.59,955.38,511.69,956.26,510.3,956.55Zm-61,.14-1.48.91,1.33,3a3.43,3.43,0,0,0-.23,1.08c0,.29.34.59.53.88a25.83,25.83,0,0,0,3-4.41c.29-.67-.6-1.85-1.25-3.57-.12.61,0,.22,0-.17l-4.73-.57a3.82,3.82,0,0,1-.07-.45l-3,.63Zm12.87,14.11,1,.61,4.23-7.63-2.84.3,1.13-1.18-.34-.44-4.14,3,2.25,1-1.14.66ZM472.63,980c1.35,2.16,2.69,4.44,4.2,6.59.32.46,1.29.46,2,.67.2-.71.76-1.56.54-2.1a65,65,0,0,0-3.34-6.94c-.27-.49-1.49-1-1.84-.79C473.56,977.82,473.33,978.75,472.63,980Zm10.19-5.88.83-.26a17.89,17.89,0,0,0-1.07-4c-1.23-2.36-2.73-4.6-4.19-6.84-.31-.47-.95-.71-1.44-1.06.07.66-.07,1.46.25,2,1.5,2.4,3.21,4.68,4.68,7.1A12.69,12.69,0,0,1,482.82,974.16Zm16-15.46-.49,0a17.93,17.93,0,0,0,.67,2.94c1.46,3.66,3,7.3,4.56,10.9.25.57,1,.92,1.52,1.37.11-.32.39-.72.29-1C503.21,968.23,501,963.47,498.82,958.7Zm10,.86c-1,2.82,1.69,7.17,4.33,7.15.61,0,1.26-1.34,1.73-2.15a2.73,2.73,0,0,0-1.42-1.13c-2-.12-4.4.44-4.07-2.94C509.43,960.26,509.11,960,508.84,959.56Zm.13-.6c-.35-.84-.4-1.42-.7-1.62-3-1.91-6-3.79-9-5.57-.46-.27-1.26,0-1.91.08.2.38.3.94.62,1.11C501.45,954.91,505,956.79,509,959Zm-15.22-49.32c-.44-1.17-.58-2.95-1.4-3.35s-3.45.13-3.56.62C487.93,911,492,908.27,493.75,909.64Zm-31.54,58.41-4.88-5.79c-.35.65-1.15,1.56-1,1.92,1.22,2.26,2.66,4.41,4,6.59Zm1.5-7.14c-.39-.69-.55-1.12-.64-1.11-1.78.28-3.56.62-5.34,1l.13.67,2.46-.25-1,1.07.35.94,5.91-2.27Zm-13.85,1.36L444.19,955c-.31.61-1,1.43-.84,1.8a50.28,50.28,0,0,0,3.53,6C447.05,963.06,448.26,962.58,449.86,962.27Zm10.29-31.52.45,0V935c.81-1.48,1.39-2,1.28-2.45a31,31,0,0,0-1.4-3.64l-3.35,1.65L460,932Zm-28.31,9.16-1.81-.39c-.31,1.46-.67,2.92-.84,4.4,0,.17.95.46,1.46.7Zm62.94,6.88.6,1,3.73-1-1.53-3.1ZM483.9,913.12l-2.48-5.7a14.69,14.69,0,0,0,.68,5.12,5.24,5.24,0,0,0,2.06-.3c.16-1.64.09-3.3.09-5l-.76,0Zm7.29,24.81c-.42.3-1.46.7-1.88,1.44a5.52,5.52,0,0,0-.34,2.88c0,.22,1,.6,1.52.49s1.16-.75,1.16-1.15A25.79,25.79,0,0,0,491.19,937.93Zm-6.59,16.8.29.63,11.45-5.14-.27-.59Zm6-41.05c.55-.81,1.23-1.4,1.33-2.06s-.57-1.16-.89-1.75l-2.37,2.61Zm-6.38-5.46,1.8,3.54c.63-.67,1.79-1.37,1.75-2-.05-.87-.95-1.74-1.64-2.46C486,907.17,485.11,907.77,484.2,908.22ZM484,955.93l-.32-.81c-1.91.81-3.83,1.61-5.73,2.43-.44.19-.85.45-1.28.68.11.16.28.47.32.46C479.35,957.79,481.69,956.86,484,955.93Zm-17.18-16.75,4.1,2,.69-2.93Zm-2.57-.81-.24-.69-5.41.47c.51.48,1.06,1.38,1.47,1.32A28.3,28.3,0,0,0,464.27,938.37Zm4.78-27.76-.78,0,.48,8,.3,0Zm33.89,67.63,1.1,1.31,3.81-3.43-.86-1ZM486.79,959.7l-.19.31c.3.17.66.54.88.46,1.51-.5,3-1.1,4.48-1.66l-.42-1-4.83,1.83Zm-13.49,1.37,2.39-1.5-2.18-.84Zm35.54,15.69c-.32.1-.47.11-.54.18-.3.3-.58.61-.86.92.43.33.84.84,1.31.92.3.05,1.06-.68,1-.82a15.28,15.28,0,0,0-1.23-2.19l-.43.32Zm-13.92-34.85c-.6.54-1.35,1-1.28,1.2a7.55,7.55,0,0,0,1.14,1.72c.44-.34,1.27-.74,1.23-1A6.43,6.43,0,0,0,494.92,941.91Zm-11.09-36.52.8-.75-1.78-1.95-.91,1.15Zm29,55.87,0-.73-2.37-.79-.21,1.77Zm-23.08-58.74,1.32,1.05a6.26,6.26,0,0,0,1-1.43c.08-.2-.41-.63-.65-.95ZM470.8,927c-.74-.49-1.17-1-1.49-.92a1.28,1.28,0,0,0-.79,1c0,.42.53.8.82,1.2Zm40.28,45.52,1.82-1.48c-.23-.25-.57-.76-.68-.71a15.11,15.11,0,0,0-1.94,1Zm-39.53-39.87,0,.8,2.81.3c-.08-.36-.12-1-.23-1.06A23.88,23.88,0,0,0,471.55,932.68Zm-1.17-1.46-.87-1.65a11.45,11.45,0,0,0-.54,1.94c0,.34.33.72.51,1.08Zm18.8-28.82c-.45-.55-.82-1.16-.94-1.12-.45.18-1.17.59-1.15.87,0,.46.55.89.87,1.33Zm-21.06,35.53.73-.18-1-4.8-.31,0ZM486,955.71l.21.8c.79-.18,1.6-.33,2.37-.58.09,0,0-.67-.05-1Zm-25.3,8.12.28.49,4.21-2.27-.26-.46Zm19.36-58.21.82-.1-.46-3.31-.6.09ZM469,925.25l.69,0-.26-3.56-.68.05Zm22,9.69a10.68,10.68,0,0,0,1.14-1.39c0-.07-.48-.64-.62-.6a2.85,2.85,0,0,0-1.19.74C490.25,933.76,490.62,934.27,491,934.94Zm2.33-14.13v.36l6.31.71,0-.32Zm4.75-11.43.35,0c-.19-1.59-.37-3.18-.55-4.77l-.59.06C497.54,906.23,497.81,907.8,498.07,909.38Zm-10.61,14.84c0-1.46.18-2.15,0-2.64s-.89-.9-1.37-1.34Zm8.45,24.31-.1-.65c-.77.09-1.54.18-2.29.32a7,7,0,0,0,.06.81Zm-7.37-34.74v.31h3.63l0-.31ZM497.47,943l.44-.78-2.1-1.12-.4.71Zm-33.88-18.26,0,.76,2.86-.55-.07-.51Zm11.12,37.37.4.18,2.13-2a2,2,0,0,0-1.71.48A5.25,5.25,0,0,0,474.71,962.13Zm36,14.39.34-.65L509,974.72l-.32.67Zm-43-34.3,0-.21-4.94-1.1-.1.53Zm30.14-39.48a5.76,5.76,0,0,0,.57-1.35c0-.22-.42-.76-.6-.74a1.85,1.85,0,0,0-.76.4Zm9.77,72.84a19.81,19.81,0,0,0-.27-3.14c-.11-.37-.62-.63-1.32-1.3Zm-45.47-39.17-.11-.64-2.33.36.11.68Zm35.42,22.43.61-.14-.9-2.59-.43.15Zm-5.78-17.32a7,7,0,0,0,2,.44c.3,0,.52-.56,1.06-1.2Zm-4.27-14.27-.11-.6-1.85.21.15.89Zm.13,15c0,.14-.21.73-.19.74.87.3,1.75.55,3.23,1ZM496,957l-.72.18.42,1.92.72-.16Zm6.31,17.79.11.69,2.1-.37-.1-.68Zm-8.39-16.91-1.18.83c.23.19.52.57.69.52a5.19,5.19,0,0,0,1.12-.67Zm18.32,22.71.57.37,1.08-1.7-.5-.33ZM492,943.18l-.55.05.17,2.06.65-.08Zm-4.08-9,.63-.37-.86-1.28a3.52,3.52,0,0,0-.48.33C487.4,933.26,487.66,933.69,487.9,934.13ZM458.06,933l-.39-.52a4,4,0,0,0-1,.69c-.1.13.2.57.31.87Zm28.26,24-.05.6,1.86.18.05-.64Zm-35.7-6,2.06.73.51-.73Zm6.35-6.91,2.67.72.32-1Zm13,13.45-.29.43,1.2,1a5,5,0,0,0,.33-.64A14.08,14.08,0,0,0,469.93,957.57Zm24-27c-.33-.19-.72-.48-.77-.43a3.48,3.48,0,0,0-.66,1c0,.08.32.32.5.48Zm-33.54,10.22,0-.58h-1.47c0,.22.07.61.12.61A12.84,12.84,0,0,0,460.43,940.77Zm5.8,18.4-1.49.12a6.21,6.21,0,0,0,.31.75c.08.14.25.22.42.37Z" transform="translate(-396.39 -865.57)"/><path class="cls-2" d="M497.64,941.23c0-.23.06-.45,0,0l7.71-.5,0,.81H498Z" transform="translate(-396.39 -865.57)"/><path class="cls-2" d="M495.56,953.6l-1.31,2.72a4.58,4.58,0,0,1-.6-.51c.46-.78,1-1.54,1.48-2.3Z" transform="translate(-396.39 -865.57)"/><path class="cls-2" d="M478.94,928.52l.18,3.36,2.26.12c.15-.43.28-1.19.43-1.2a2.86,2.86,0,0,1,2.16.79l-.55-.05c-.73.59-1.09,1.14-1.53,1.2-1.4.21-2.83.24-4.24.33l.9-4.54Z" transform="translate(-396.39 -865.57)"/><path class="cls-2" d="M511.52,938.9l-4.15.85-.1-.54,4.13-.89Z" transform="translate(-396.39 -865.57)"/><path class="cls-2" d="M502.13,943.12l2.83-1.33.24.48-2.83,1.37Z" transform="translate(-396.39 -865.57)"/><path class="cls-2" d="M434.55,944a7.94,7.94,0,0,0,.51-.71l-2.76-.71.09-.45,21.73,3.58-.09.65Z" transform="translate(-396.39 -865.57)"/><path class="cls-2" d="M484.86,951.4l-3,1.22-.2-.48,3-1.22Z" transform="translate(-396.39 -865.57)"/><path class="cls-2" d="M449.57,937.49l-.67-4.62.69-.09.57,4.63Z" transform="translate(-396.39 -865.57)"/><path class="cls-2" d="M461,927.32l-3.49,1.29-.26-.55,3.41-1.39Z" transform="translate(-396.39 -865.57)"/><path class="cls-2" d="M480.85,983.18l2.37-1.27.24.46-2.36,1.29Z" transform="translate(-396.39 -865.57)"/><path class="cls-2" d="M451.55,958.2,449,959.39l-.23-.44,2.48-1.26Z" transform="translate(-396.39 -865.57)"/><path class="cls-2" d="M462.58,968.6l2.6-1.13.21.47-2.55,1.25Z" transform="translate(-396.39 -865.57)"/><path class="cls-2" d="M480.12,984.44c-1.45.54-2.63,1.18-2.78,1a34.31,34.31,0,0,1-3.15-4.75c-.12-.22.72-1,1.11-1.48ZM476,981.27l-.38.19,1,1.93.54-.31Z" transform="translate(-396.39 -865.57)"/><path class="cls-2" d="M503.6,971.82l-1.18-2.77.53-.23,1.15,2.78Z" transform="translate(-396.39 -865.57)"/><path class="cls-2" d="M461.47,967.71l-1.94,1.65a39.06,39.06,0,0,1-2.48-4c-.14-.3.67-1.06,1-1.61Z" transform="translate(-396.39 -865.57)"/><path class="cls-2" d="M443.25,958.08l1.57-1.75a44.48,44.48,0,0,1,2.38,3.89c.13.26-.62.95-1,1.44Z" transform="translate(-396.39 -865.57)"/><path class="cls-2" d="M488.51,909.05l-1.93,1.65c-.3-.37-.84-.74-.84-1.12a1.42,1.42,0,0,1,.82-1.11C487,908.38,487.6,908.75,488.51,909.05Z" transform="translate(-396.39 -865.57)"/><path class="cls-2" d="M504,977.11l2.16-.44.13.46-2.17.61Z" transform="translate(-396.39 -865.57)"/></g></svg>